<svg width="150" height="150" viewBox="0 0 150 150" fill="none" xmlns="http://www.w3.org/2000/svg">
<path d="M54.056 55.0454H42.7148L89.0206 0H100.36L54.056 55.0454Z" fill="#0063B6"/>
<path d="M78.1541 68.1571H66.8145L113.119 13.1117H124.458L78.1541 68.1571Z" fill="#0063B6"/>
<path d="M77.416 47.5552H67.7305L90.3131 20.6219H99.9986" fill="#FF2D2D"/>
<path d="M6.9077 118.323H17.6111C18.9356 118.323 19.9183 118.201 20.5606 117.952C21.2029 117.705 21.7318 117.321 22.1473 116.796C22.5627 116.272 22.9383 115.536 23.274 114.587C23.6097 113.638 24.0144 112.167 24.4897 110.169H27.3947V121.05H0V119.597L20.3107 83.3048H9.54752C8.77642 83.3048 8.16935 83.3692 7.72478 83.498C7.28021 83.6268 6.8801 83.8245 6.52445 84.0913C6.16879 84.358 5.81774 84.7489 5.47128 85.2625C5.12482 85.776 4.77836 86.4828 4.43343 87.3826C4.08698 88.2825 3.72672 89.4047 3.35114 90.7476H0.446104V80.5776H27.1908V82.0003L6.9077 118.323Z" fill="#0063B6"/>
<path d="M56.4235 116.01C55.1587 117.334 53.9967 118.372 52.939 119.123C51.8812 119.874 50.7192 120.463 49.4545 120.888C48.1897 121.312 46.7962 121.525 45.274 121.525C41.2023 121.525 38.1287 120.305 36.053 117.863C33.9773 115.423 32.9395 111.82 32.9395 107.055C32.9395 104.111 33.4683 101.511 34.5261 99.2571C35.5839 97.0036 37.0908 95.2651 39.0485 94.0387C41.0061 92.8139 43.2581 92.2007 45.809 92.2007C47.8049 92.2007 49.505 92.5165 50.9093 93.1496C52.312 93.7827 53.4341 94.6473 54.2742 95.7434C55.1143 96.8411 55.7658 98.2238 56.2318 99.8948C56.6963 101.566 56.9585 103.744 57.0183 106.433H38.3371V106.967C38.3371 109.3 38.5993 111.26 39.122 112.852C39.6463 114.443 40.5048 115.688 41.7021 116.588C42.8978 117.488 44.4538 117.937 46.3716 117.937C47.992 117.937 49.4499 117.636 50.7452 117.032C52.0391 116.43 53.3299 115.446 54.6145 114.081L56.4235 116.01ZM51.4428 103.973C51.3247 101.837 51.058 100.094 50.6425 98.7389C50.2271 97.3853 49.6047 96.3474 48.7738 95.6254C47.9429 94.9034 46.856 94.5431 45.5116 94.5431C43.4758 94.5431 41.8492 95.3587 40.6336 96.9898C39.4179 98.6209 38.702 100.948 38.4843 103.973H51.4428Z" fill="#0063B6"/>
<path d="M70.3583 97.6275L70.7737 97.7164C71.8606 96.3919 72.8693 95.3495 73.7983 94.5876C74.7273 93.8272 75.7299 93.2385 76.8076 92.8231C77.8853 92.4076 79.1056 92.2007 80.4699 92.2007C81.6166 92.2007 82.6545 92.2605 83.5835 92.3785V99.1988H80.2323C79.7586 98.1319 79.2543 97.3562 78.7208 96.8717C78.1873 96.3873 77.4561 96.1451 76.5271 96.1451C75.8157 96.1451 75.109 96.352 74.4069 96.7675C73.7048 97.1829 73.0288 97.7854 72.3757 98.5764C71.7242 99.3675 71.2735 100.108 71.0267 100.801C70.7798 101.492 70.6557 102.312 70.6557 103.261V113.638C70.6557 115.436 70.7645 116.677 70.9822 117.359C71.1999 118.041 71.5601 118.541 72.0645 118.856C72.5689 119.172 73.3246 119.419 74.3333 119.597V121.05H62.3836V119.597C63.1348 119.359 63.6729 119.152 63.9994 118.975C64.3259 118.797 64.6065 118.55 64.8441 118.234C65.0817 117.918 65.2595 117.434 65.3776 116.781C65.4956 116.129 65.5554 115.111 65.5554 113.727V100.799C65.5554 99.5346 65.5355 98.5166 65.4956 97.7455C65.4557 96.9744 65.3178 96.3566 65.0802 95.8922C64.8425 95.4277 64.4823 95.0812 63.9979 94.8543C63.5134 94.6274 62.8266 94.4343 61.9375 94.2764V92.7342L68.8759 92.4383H70.6848L70.3583 97.6275Z" fill="#0063B6"/>
<path d="M99.4755 121.526C95.364 121.526 92.226 120.314 90.0614 117.894C87.8968 115.473 86.8145 111.889 86.8145 107.146C86.8145 103.884 87.3832 101.127 88.5191 98.8739C89.6551 96.6204 91.2126 94.9449 93.1887 93.8488C95.1647 92.7511 97.4182 92.2039 99.9492 92.2039C104.179 92.2039 107.381 93.4348 109.557 95.8953C111.73 98.3558 112.819 101.889 112.819 106.494C112.819 109.777 112.275 112.544 111.188 114.797C110.101 117.051 108.559 118.735 106.563 119.853C104.565 120.968 102.204 121.526 99.4755 121.526ZM92.4191 106.522C92.4191 110.594 93.066 113.723 94.3614 115.906C95.6553 118.09 97.5087 119.182 99.9201 119.182C101.245 119.182 102.371 118.861 103.3 118.217C104.229 117.575 104.985 116.71 105.569 115.623C106.152 114.537 106.572 113.276 106.829 111.843C107.085 110.41 107.214 108.914 107.214 107.351C107.214 104.446 106.892 102.035 106.25 100.117C105.608 98.201 104.732 96.7921 103.625 95.8923C102.519 94.9924 101.254 94.5432 99.8296 94.5432C97.4381 94.5432 95.6047 95.581 94.3292 97.6567C93.0538 99.7324 92.4191 102.688 92.4191 106.522Z" fill="#0063B6"/>
<path d="M130.194 80.5791V82.0324C129.245 82.1704 128.563 82.4279 128.147 82.8035C127.732 83.1791 127.525 83.6926 127.525 84.3457C127.525 84.8991 127.712 85.5905 128.087 86.4214C128.463 87.2522 128.997 88.2395 129.688 89.3862L133.986 96.5913L138.227 89.7418C138.858 88.7147 139.334 87.893 139.649 87.2814C139.965 86.6682 140.187 86.1546 140.316 85.7392C140.445 85.3237 140.509 84.8991 140.509 84.4637C140.509 83.8505 140.332 83.3324 139.976 82.9077C139.62 82.4831 139.027 82.1918 138.198 82.0324V80.5791H149.198V82.0324C148.467 82.27 147.81 82.6149 147.227 83.0702C146.644 83.5255 146.02 84.1878 145.36 85.057C144.698 85.9277 143.753 87.3013 142.528 89.1777L135.828 99.5546L143.359 111.949C144.426 113.709 145.193 114.938 145.657 115.64C146.122 116.342 146.557 116.936 146.962 117.419C147.366 117.903 147.802 118.323 148.266 118.679C148.731 119.034 149.309 119.341 150 119.599V121.052H136.983V119.599C137.893 119.441 138.564 119.189 138.999 118.843C139.433 118.498 139.652 117.978 139.652 117.287C139.652 116.733 139.508 116.12 139.223 115.449C138.936 114.777 138.497 113.946 137.903 112.958L132.536 104.003L126.873 113.284C125.924 114.846 125.451 116.131 125.451 117.138C125.451 117.79 125.629 118.325 125.984 118.739C126.34 119.152 126.933 119.441 127.762 119.599V121.052H116.555V119.599C117.286 119.381 117.888 119.12 118.364 118.814C118.837 118.507 119.293 118.118 119.728 117.642C120.162 117.169 120.648 116.565 121.181 115.833C121.715 115.102 122.564 113.827 123.731 112.009L130.729 101.097L122.368 87.3396C121.577 86.0749 120.979 85.1551 120.574 84.5818C120.17 84.0084 119.794 83.5439 119.447 83.1883C119.101 82.8326 118.79 82.5812 118.514 82.4325C118.236 82.2838 117.921 82.1504 117.565 82.0324V80.5791H130.194Z" fill="#FF2D2D"/>
<path d="M4.4083 136.525H7.23821L6.09766 141.096C6.01335 141.432 5.93976 141.766 5.87691 142.097C5.81406 142.428 5.78186 142.733 5.78186 143.009C5.78186 143.434 5.85545 143.74 6.00262 143.926C6.14978 144.111 6.3782 144.205 6.6894 144.205C6.94694 144.205 7.22595 144.105 7.52488 143.904C7.82382 143.704 8.14115 143.392 8.47688 142.971C8.81261 142.549 9.07782 142.149 9.27251 141.772C9.4672 141.395 9.61896 140.946 9.72627 140.424L10.5434 136.526H12.0978L10.7319 142.661C10.6967 142.822 10.6537 143.035 10.6062 143.299C10.5587 143.563 10.5342 143.779 10.5342 143.946C10.5342 144.197 10.6047 144.375 10.7457 144.481C10.8868 144.585 11.1489 144.649 11.5321 144.674L11.434 145.114H8.86472L9.4396 142.859L9.32309 142.824C8.74208 143.65 8.18101 144.263 7.63832 144.66C7.09564 145.059 6.54989 145.258 5.99955 145.258C5.41854 145.258 4.97857 145.099 4.67964 144.778C4.3807 144.458 4.23047 143.983 4.23047 143.354C4.23047 143.175 4.24733 142.963 4.27952 142.721C4.31171 142.479 4.35924 142.226 4.41902 141.962L5.17326 138.773C5.23305 138.51 5.27291 138.301 5.29437 138.145C5.31583 137.99 5.32656 137.857 5.32656 137.749C5.32656 137.48 5.25451 137.291 5.11041 137.184C4.96631 137.076 4.70876 137.007 4.33778 136.977L4.4083 136.525Z" fill="#0063B6"/>
<path d="M18.6548 143.512V143.386C18.6548 143.345 18.6579 143.299 18.664 143.251C17.7412 144.587 16.7156 145.255 15.5827 145.255C14.577 145.255 14.0742 144.651 14.0742 143.44C14.0742 143.05 14.1432 142.548 14.2812 141.931L15.0446 138.77C15.1458 138.352 15.1979 138.01 15.1979 137.746C15.1979 137.489 15.132 137.303 15.0002 137.19C14.8683 137.076 14.6046 137.001 14.2091 136.966L14.2904 136.526H17.1111L15.9797 141.09C15.7406 142.054 15.621 142.782 15.621 143.273C15.621 143.895 15.8755 144.206 16.3845 144.206C16.8336 144.206 17.3395 143.88 17.9021 143.227C18.4647 142.574 18.8572 141.715 19.0795 140.648L19.9594 136.526H21.5139L20.4806 141.09C20.2354 142.174 20.1127 142.902 20.1127 143.273C20.1127 143.895 20.3703 144.206 20.8853 144.206C21.425 144.206 21.9784 143.832 22.5471 143.084C23.1159 142.336 23.493 141.491 23.6785 140.552L24.5232 136.528H26.0776L24.7117 142.663C24.5799 143.256 24.514 143.684 24.514 143.947C24.514 144.186 24.5737 144.357 24.6933 144.455C24.8129 144.553 25.0735 144.616 25.4751 144.639L25.3678 145.115H22.8322L23.3167 143.237L23.2094 143.202C22.2696 144.574 21.2548 145.259 20.1648 145.259C19.6973 145.259 19.3293 145.102 19.0595 144.787C18.7897 144.473 18.6548 144.045 18.6548 143.512Z" fill="#0063B6"/>
<path d="M30.5296 145.264C29.6006 145.264 28.8816 145.003 28.3696 144.482C27.8576 143.961 27.6016 143.213 27.6016 142.236C27.6016 141.878 27.646 141.455 27.7365 140.97C27.8499 140.342 28.0124 139.785 28.2209 139.299C28.4907 138.695 28.8356 138.172 29.2587 137.732C29.6818 137.293 30.1663 136.957 30.7136 136.727C31.2608 136.497 31.8495 136.38 32.478 136.38C33.1664 136.38 33.7305 136.512 34.1705 136.776C34.6104 137.04 34.9293 137.397 35.1271 137.849C35.3248 138.301 35.4229 138.824 35.4229 139.416C35.4229 139.949 35.3478 140.518 35.1991 141.122C34.983 142.008 34.6687 142.759 34.2563 143.377C33.8424 143.993 33.3258 144.462 32.7018 144.783C32.081 145.103 31.3559 145.264 30.5296 145.264ZM29.1729 142.623C29.1729 143.282 29.3093 143.768 29.5822 144.082C29.8551 144.396 30.2659 144.554 30.8178 144.554C31.4049 144.554 31.9262 144.291 32.3815 143.763C32.8368 143.236 33.1955 142.499 33.4591 141.55C33.7228 140.601 33.8547 139.767 33.8547 139.048C33.8547 138.401 33.729 137.915 33.4775 137.588C33.2261 137.262 32.8337 137.099 32.3002 137.099C31.6778 137.099 31.1336 137.36 30.6706 137.881C30.2061 138.402 29.8413 139.147 29.5745 140.118C29.3063 141.087 29.1729 141.922 29.1729 142.623Z" fill="#0063B6"/>
<path d="M39.5675 140.234H42.9983L43.8062 136.524H45.3607L43.9503 142.867C43.9028 143.095 43.8645 143.291 43.8384 143.46C43.8108 143.627 43.7985 143.771 43.7985 143.891C43.7985 144.041 43.82 144.162 43.8614 144.254C43.9028 144.347 43.9656 144.421 44.0499 144.478C44.1343 144.534 44.24 144.576 44.3688 144.603C44.4976 144.631 44.6463 144.652 44.8134 144.671L44.7321 145.111H41.9482L42.8282 141.033H39.3973L38.5173 145.111H36.9629L38.3457 139.057C38.4177 138.74 38.4698 138.473 38.5036 138.258C38.5357 138.042 38.5526 137.86 38.5526 137.711C38.5526 137.573 38.5357 137.46 38.5036 137.369C38.4698 137.279 38.4146 137.21 38.338 137.158C38.2598 137.107 38.1586 137.069 38.0329 137.046C37.9072 137.021 37.7539 137.007 37.5746 137.001L37.6727 136.524L39.8649 136.443H40.3953L39.5675 140.234Z" fill="#0063B6"/>
<path d="M47.2367 136.525H49.8949L49.4733 138.177C49.3829 138.536 49.3139 138.862 49.2663 139.157C49.2188 139.451 49.1943 139.71 49.1943 139.939C49.1943 140.07 49.2096 140.199 49.2388 140.325C49.2679 140.451 49.3169 140.562 49.3829 140.662C49.4488 140.76 49.5392 140.838 49.6527 140.895C49.7661 140.952 49.9071 140.981 50.0742 140.981C50.3011 140.981 50.5341 140.909 50.7702 140.765C51.0063 140.621 51.2531 140.414 51.5107 140.145C51.8464 139.804 52.1147 139.442 52.3186 139.059C52.5224 138.675 52.6711 138.268 52.7677 137.837L53.0636 136.526H54.5997L53.2521 142.68C53.1264 143.254 53.0636 143.679 53.0636 143.955C53.0636 144.219 53.1448 144.396 53.3058 144.49C53.4668 144.584 53.7197 144.645 54.06 144.674L53.9619 145.114H51.178L52.3906 140.129L52.2925 140.093C52.0825 140.369 51.8602 140.627 51.6226 140.866C51.3865 141.105 51.1443 141.311 50.899 141.481C50.6537 141.651 50.4069 141.786 50.1586 141.885C49.9102 141.984 49.6665 142.034 49.4258 142.034C49.0778 142.034 48.7896 141.98 48.5596 141.873C48.3297 141.766 48.1457 141.623 48.0124 141.447C47.8775 141.271 47.7839 141.068 47.7288 140.84C47.6751 140.613 47.6475 140.375 47.6475 140.13C47.6475 139.963 47.6644 139.771 47.6966 139.555C47.7287 139.339 47.7671 139.137 47.8085 138.945C47.8269 138.844 47.8468 138.737 47.8713 138.626C47.8958 138.516 47.9173 138.406 47.9388 138.298C47.9602 138.191 47.9756 138.09 47.9878 137.998C48.0001 137.906 48.0062 137.829 48.0062 137.769C48.0062 137.644 47.9924 137.536 47.9664 137.446C47.9403 137.355 47.8928 137.28 47.8269 137.217C47.7609 137.155 47.6736 137.104 47.5663 137.064C47.4589 137.026 47.321 136.997 47.1523 136.978L47.2367 136.525Z" fill="#0063B6"/>
<path d="M64.089 140.431C64.7053 140.431 65.1897 140.562 65.5393 140.826C65.8903 141.09 66.1402 141.517 66.2889 142.111L66.6476 143.556C66.8209 144.257 67.2194 144.625 67.8418 144.662L67.7345 145.111H65.5423C65.386 144.823 65.2434 144.294 65.1116 143.521L64.9138 142.344C64.8234 141.81 64.6777 141.464 64.4738 141.301C64.2699 141.14 63.9342 141.059 63.4682 141.059L62.4978 141.921L61.7788 145.109H60.252L61.6623 138.804C61.7696 138.326 61.8233 137.969 61.8233 137.736C61.8233 137.455 61.7497 137.262 61.6025 137.156C61.4554 137.052 61.2116 136.998 60.8697 136.998L60.9679 136.521L63.1141 136.423H63.6537L62.6833 140.789C63.1325 140.394 63.8683 139.624 64.8923 138.481C65.7662 137.51 66.3794 136.917 66.7289 136.698C67.0799 136.48 67.4969 136.37 67.9813 136.37C68.3769 136.37 68.6605 136.414 68.8352 136.505L68.4842 138.211H67.7836C67.7483 137.941 67.5567 137.806 67.2087 137.806C66.9818 137.806 66.7626 137.877 66.5526 138.018C66.3426 138.159 66.0375 138.435 65.6358 138.848L64.089 140.431Z" fill="#0063B6"/>
<path d="M75.8731 136.964L76.6994 136.371L77.2743 136.515L75.8992 142.615C75.8149 142.974 75.7582 143.251 75.729 143.446C75.6984 143.641 75.6846 143.8 75.6846 143.926C75.6846 144.171 75.7536 144.349 75.8915 144.461C76.0295 144.571 76.2932 144.642 76.6826 144.672L76.6013 145.112H74.032L74.5977 142.857L74.4812 142.822C73.9063 143.661 73.3606 144.274 72.847 144.663C72.3319 145.053 71.7877 145.247 71.2128 145.247C70.5536 145.247 70.0431 144.999 69.6814 144.502C69.3196 144.006 69.1387 143.308 69.1387 142.41C69.1387 141.835 69.2046 141.258 69.3364 140.68C69.4683 140.103 69.6676 139.555 69.9343 139.037C70.201 138.519 70.5199 138.062 70.8909 137.667C71.2619 137.271 71.6911 136.957 72.1801 136.724C72.6676 136.491 73.1996 136.373 73.7745 136.373C74.1455 136.373 74.4996 136.416 74.8338 136.503C75.1664 136.589 75.5144 136.742 75.8731 136.964ZM75.0837 139.641C75.1373 139.396 75.1741 139.183 75.191 139.003C75.2078 138.824 75.2186 138.629 75.2186 138.419C75.2186 137.952 75.1204 137.613 74.9227 137.4C74.7249 137.187 74.3953 137.081 73.9339 137.081C73.6825 137.081 73.4433 137.121 73.2149 137.202C72.988 137.283 72.7566 137.418 72.5235 137.607C72.2905 137.795 72.0667 138.042 71.8536 138.347C71.6405 138.652 71.4474 139.025 71.2741 139.462C71.1009 139.899 70.966 140.368 70.8694 140.868C70.7729 141.367 70.7253 141.855 70.7253 142.327C70.7253 142.949 70.8112 143.415 70.9813 143.723C71.1515 144.032 71.4382 144.186 71.8398 144.186C72.0253 144.186 72.2185 144.145 72.4193 144.061C72.6201 143.976 72.8424 143.823 73.0892 143.598C73.3345 143.374 73.6135 143.043 73.9247 142.606C74.2068 142.204 74.4291 141.809 74.5946 141.416C74.7587 141.024 74.8951 140.561 75.0039 140.029L75.0837 139.641Z" fill="#0063B6"/>
<path d="M85.1801 135.778C85.3242 135.149 85.5035 134.61 85.7197 134.161C85.9358 133.711 86.1872 133.343 86.4739 133.055C86.7606 132.767 87.0825 132.557 87.4397 132.422C87.7954 132.287 88.1801 132.22 88.594 132.22C88.9773 132.22 89.3897 132.267 89.8343 132.364L89.4924 133.828H88.8899C88.8777 133.636 88.8516 133.481 88.8087 133.365C88.7673 133.248 88.7121 133.158 88.6477 133.095C88.5818 133.032 88.5051 132.989 88.4193 132.965C88.3319 132.94 88.2384 132.93 88.1357 132.93C87.9686 132.93 87.8168 132.974 87.6819 133.064C87.547 133.155 87.4213 133.302 87.3048 133.509C87.1883 133.716 87.0764 133.987 86.9675 134.321C86.8602 134.657 86.7483 135.07 86.6349 135.562L86.3114 136.963L86.3927 137.007C86.5368 136.917 86.6763 136.834 86.8096 136.756C86.9446 136.678 87.0902 136.61 87.245 136.554C87.3998 136.497 87.5746 136.454 87.7662 136.423C87.9579 136.394 88.1801 136.379 88.4316 136.379C88.755 136.379 89.0524 136.443 89.3253 136.572C89.5982 136.701 89.8312 136.886 90.0259 137.128C90.2206 137.371 90.3723 137.67 90.4842 138.022C90.5946 138.376 90.6498 138.776 90.6498 139.226C90.6498 139.693 90.6069 140.165 90.5195 140.645C90.4321 141.125 90.3049 141.586 90.1378 142.032C89.9707 142.479 89.7637 142.899 89.5184 143.29C89.2732 143.682 88.988 144.024 88.6646 144.314C88.3411 144.605 87.9824 144.833 87.5869 145C87.1914 145.167 86.7606 145.252 86.293 145.252C85.8975 145.252 85.5648 145.2 85.2966 145.094C85.0268 144.99 84.7876 144.859 84.5776 144.703L84.4074 145.502C84.2756 146.136 84.1024 146.679 83.8862 147.128C83.6701 147.577 83.4171 147.945 83.1274 148.233C82.8361 148.522 82.5126 148.73 82.1524 148.862C81.7921 148.994 81.4073 149.06 80.9934 149.06C80.6102 149.06 80.1963 149.012 79.7532 148.916L80.0951 147.452H80.6976C80.7098 147.643 80.7359 147.798 80.7788 147.915C80.8202 148.031 80.8739 148.122 80.9398 148.184C81.0057 148.247 81.0824 148.29 81.1682 148.315C81.2556 148.339 81.3491 148.35 81.4518 148.35C81.6189 148.35 81.7722 148.304 81.9102 148.21C82.0481 148.117 82.1754 147.968 82.2919 147.761C82.4084 147.554 82.5188 147.285 82.6246 146.953C82.7288 146.621 82.8361 146.213 82.9434 145.727L83.1764 144.675L83.0952 144.631C82.9342 144.75 82.7779 144.85 82.6276 144.927C82.4774 145.005 82.3256 145.068 82.1692 145.115C82.0129 145.163 81.8519 145.198 81.6848 145.218C81.5177 145.239 81.3338 145.25 81.1375 145.25C80.8079 145.25 80.5029 145.189 80.2208 145.066C79.9387 144.944 79.6965 144.763 79.4926 144.524C79.2887 144.284 79.1308 143.987 79.0159 143.634C78.9024 143.282 78.8457 142.874 78.8457 142.413C78.8457 141.945 78.8886 141.473 78.976 140.993C79.0634 140.515 79.1906 140.052 79.3577 139.606C79.5248 139.16 79.7318 138.741 79.9771 138.349C80.2223 137.956 80.5075 137.616 80.8309 137.325C81.1544 137.035 81.5131 136.805 81.9086 136.638C82.3042 136.471 82.7349 136.386 83.2025 136.386C83.3941 136.386 83.5658 136.399 83.7191 136.422C83.8724 136.446 84.015 136.48 84.1499 136.524C84.2848 136.569 84.4136 136.627 84.5362 136.695C84.6588 136.764 84.7861 136.843 84.9179 136.932L85.1801 135.778ZM84.2725 139.865C84.3507 139.535 84.4059 139.23 84.4381 138.948C84.4703 138.668 84.4872 138.439 84.4872 138.266C84.4872 137.889 84.3844 137.601 84.1821 137.4C83.9782 137.199 83.6915 137.099 83.3205 137.099C82.9971 137.099 82.7027 137.182 82.436 137.346C82.1693 137.512 81.9286 137.731 81.7124 138.007C81.4963 138.283 81.3108 138.6 81.1559 138.959C80.9996 139.318 80.8677 139.693 80.7604 140.081C80.6531 140.47 80.5734 140.86 80.5228 141.249C80.4722 141.638 80.4462 142.003 80.4462 142.345C80.4462 143.052 80.5535 143.596 80.7696 143.975C80.9858 144.355 81.323 144.545 81.7845 144.545C82.0175 144.545 82.2336 144.496 82.4314 144.396C82.6291 144.297 82.807 144.16 82.9664 143.982C83.1243 143.806 83.2623 143.598 83.3803 143.359C83.4968 143.119 83.5888 142.862 83.6547 142.586L84.2725 139.865ZM85.2874 141.787C85.2031 142.164 85.1433 142.482 85.108 142.739C85.0728 142.997 85.0544 143.213 85.0544 143.386C85.0544 143.763 85.1494 144.051 85.338 144.248C85.5265 144.444 85.8071 144.544 86.1781 144.544C86.5015 144.544 86.7958 144.461 87.0626 144.297C87.3293 144.133 87.57 143.912 87.7862 143.636C88.0023 143.36 88.1878 143.043 88.3426 142.684C88.4975 142.325 88.6308 141.951 88.7382 141.562C88.8455 141.172 88.9252 140.782 88.9758 140.389C89.0264 139.997 89.0524 139.633 89.0524 139.298C89.0524 138.556 88.9375 138.002 88.706 137.64C88.476 137.279 88.1449 137.098 87.7141 137.098C87.5286 137.098 87.3508 137.133 87.1791 137.205C87.0074 137.277 86.848 137.375 86.6993 137.501C86.526 137.645 86.3743 137.837 86.2455 138.076C86.1167 138.315 86.0017 138.641 85.899 139.055L85.2874 141.787Z" fill="#0063B6"/>
<path d="M95.1136 145.264C94.1846 145.264 93.4656 145.003 92.9536 144.482C92.4416 143.961 92.1855 143.213 92.1855 142.236C92.1855 141.878 92.23 141.455 92.3205 140.97C92.4339 140.342 92.5964 139.785 92.8049 139.299C93.0747 138.695 93.4196 138.172 93.8427 137.732C94.2658 137.293 94.7503 136.957 95.2975 136.727C95.8448 136.497 96.4335 136.38 97.062 136.38C97.7503 136.38 98.3145 136.512 98.7544 136.776C99.1944 137.04 99.5133 137.397 99.711 137.849C99.9088 138.301 100.007 138.824 100.007 139.416C100.007 139.949 99.9318 140.518 99.7831 141.122C99.567 142.008 99.2527 142.759 98.8403 143.377C98.4264 143.993 97.9082 144.462 97.2858 144.783C96.665 145.103 95.9399 145.264 95.1136 145.264ZM93.7569 142.623C93.7569 143.282 93.8933 143.768 94.1662 144.082C94.4391 144.396 94.8499 144.554 95.4018 144.554C95.9889 144.554 96.5101 144.291 96.9654 143.763C97.4208 143.236 97.7795 142.499 98.0431 141.55C98.3068 140.601 98.4387 139.767 98.4387 139.048C98.4387 138.401 98.3129 137.915 98.0615 137.588C97.8101 137.262 97.4177 137.099 96.8842 137.099C96.2618 137.099 95.7176 137.36 95.2546 137.881C94.7901 138.402 94.4253 139.147 94.1585 140.118C93.8902 141.087 93.7569 141.922 93.7569 142.623Z" fill="#0063B6"/>
<path d="M110.06 136.524L108.65 142.866C108.547 143.322 108.496 143.664 108.496 143.89C108.496 144.142 108.562 144.324 108.694 144.438C108.826 144.551 109.099 144.629 109.511 144.671L109.43 145.111H106.646L108.298 137.458H107.868C107.431 137.458 107.043 137.596 106.704 137.872C106.365 138.148 106.07 138.551 105.815 139.084C105.561 139.618 105.145 140.654 104.57 142.192C104.175 143.247 103.73 144.019 103.237 144.514C102.743 145.01 102.151 145.255 101.463 145.255C100.995 145.255 100.583 145.195 100.223 145.075L100.644 143.127H101.282C101.282 143.749 101.467 144.061 101.838 144.061C102.222 144.061 102.568 143.829 102.881 143.365C103.192 142.9 103.666 141.855 104.3 140.225C104.947 138.566 105.545 137.535 106.093 137.13C106.64 136.725 107.304 136.523 108.082 136.523H110.06V136.524Z" fill="#0063B6"/>
<path d="M118.334 136.964L119.161 136.371L119.736 136.515L118.362 142.615C118.278 142.974 118.221 143.251 118.192 143.446C118.161 143.641 118.147 143.8 118.147 143.926C118.147 144.171 118.216 144.349 118.354 144.461C118.492 144.571 118.756 144.642 119.145 144.672L119.064 145.112H116.495L117.061 142.857L116.944 142.822C116.369 143.661 115.823 144.274 115.31 144.663C114.795 145.053 114.251 145.247 113.676 145.247C113.017 145.247 112.506 144.999 112.144 144.502C111.782 144.006 111.602 143.308 111.602 142.41C111.602 141.835 111.667 141.258 111.799 140.68C111.931 140.103 112.13 139.555 112.397 139.037C112.664 138.519 112.983 138.062 113.354 137.667C113.725 137.271 114.154 136.957 114.643 136.724C115.131 136.491 115.662 136.373 116.237 136.373C116.608 136.373 116.962 136.416 117.297 136.503C117.628 136.589 117.974 136.742 118.334 136.964ZM117.543 139.641C117.597 139.396 117.634 139.183 117.651 139.003C117.668 138.824 117.678 138.629 117.678 138.419C117.678 137.952 117.58 137.613 117.382 137.4C117.185 137.187 116.855 137.081 116.394 137.081C116.142 137.081 115.903 137.121 115.675 137.202C115.446 137.283 115.216 137.418 114.983 137.607C114.75 137.795 114.527 138.042 114.313 138.347C114.1 138.652 113.907 139.025 113.734 139.462C113.561 139.899 113.426 140.368 113.329 140.868C113.233 141.367 113.185 141.855 113.185 142.327C113.185 142.949 113.271 143.415 113.441 143.723C113.611 144.032 113.898 144.186 114.3 144.186C114.485 144.186 114.678 144.145 114.879 144.061C115.08 143.976 115.302 143.823 115.549 143.598C115.794 143.374 116.073 143.043 116.385 142.606C116.665 142.204 116.889 141.809 117.054 141.416C117.218 141.024 117.355 140.561 117.464 140.029L117.543 139.641Z" fill="#0063B6"/>
<path d="M129.131 138.284V138.41C129.131 138.451 129.128 138.497 129.122 138.545C129.643 137.809 130.161 137.263 130.676 136.911C131.191 136.558 131.723 136.38 132.275 136.38C132.844 136.38 133.276 136.541 133.574 136.86C133.869 137.181 134.018 137.656 134.018 138.284C134.018 138.668 133.958 139.129 133.839 139.667L133.085 142.865C132.982 143.296 132.931 143.638 132.931 143.889C132.931 144.068 132.96 144.209 133.022 144.311C133.081 144.413 133.175 144.49 133.301 144.544C133.426 144.597 133.633 144.64 133.92 144.669L133.839 145.109H131.018L132.149 140.546C132.234 140.216 132.307 139.882 132.37 139.545C132.433 139.206 132.465 138.899 132.465 138.623C132.465 138.192 132.39 137.886 132.241 137.702C132.091 137.519 131.855 137.427 131.532 137.427C131.299 137.427 131.036 137.524 130.745 137.716C130.454 137.907 130.15 138.2 129.833 138.596C129.516 138.991 129.257 139.382 129.056 139.768C128.855 140.155 128.696 140.627 128.576 141.183L127.759 145.109H126.204L127.238 140.546C127.363 139.989 127.449 139.577 127.494 139.31C127.538 139.043 127.561 138.815 127.561 138.623C127.561 138.192 127.484 137.886 127.333 137.702C127.179 137.519 126.942 137.427 126.618 137.427C126.379 137.427 126.114 137.526 125.823 137.719C125.531 137.913 125.225 138.214 124.901 138.622C124.578 139.029 124.319 139.428 124.124 139.82C123.929 140.213 123.778 140.679 123.67 141.217L122.853 145.106H121.299L122.665 138.971C122.694 138.833 122.735 138.629 122.786 138.361C122.836 138.091 122.862 137.867 122.862 137.688C122.862 137.521 122.836 137.391 122.786 137.297C122.735 137.205 122.648 137.136 122.525 137.09C122.403 137.046 122.194 137.014 121.901 136.995L122.009 136.518L124.057 136.437H124.56L123.966 138.764L124.074 138.799C124.624 137.979 125.173 137.369 125.717 136.972C126.261 136.574 126.813 136.374 127.37 136.374C127.944 136.374 128.381 136.538 128.68 136.863C128.981 137.196 129.131 137.668 129.131 138.284Z" fill="#0063B6"/>
<path d="M136.584 136.525H139.414L138.273 141.096C138.189 141.432 138.116 141.766 138.053 142.097C137.99 142.428 137.958 142.733 137.958 143.009C137.958 143.434 138.031 143.74 138.178 143.926C138.326 144.111 138.554 144.205 138.865 144.205C139.123 144.205 139.402 144.105 139.701 143.904C140 143.704 140.317 143.392 140.653 142.971C140.988 142.549 141.254 142.149 141.448 141.772C141.643 141.395 141.795 140.946 141.902 140.424L142.719 136.526H144.274L142.908 142.661C142.872 142.822 142.83 143.035 142.782 143.299C142.734 143.563 142.71 143.779 142.71 143.946C142.71 144.197 142.78 144.375 142.922 144.481C143.063 144.585 143.325 144.649 143.708 144.674L143.61 145.114H141.041L141.615 142.859L141.499 142.824C140.918 143.65 140.357 144.263 139.814 144.66C139.271 145.059 138.726 145.258 138.175 145.258C137.594 145.258 137.154 145.099 136.855 144.778C136.556 144.458 136.406 143.983 136.406 143.354C136.406 143.175 136.423 142.963 136.455 142.721C136.488 142.479 136.535 142.226 136.595 141.962L137.349 138.773C137.409 138.51 137.449 138.301 137.47 138.145C137.492 137.99 137.502 137.857 137.502 137.749C137.502 137.48 137.43 137.291 137.286 137.184C137.142 137.076 136.885 137.007 136.514 136.977L136.584 136.525Z" fill="#0063B6"/>
</svg>
