<svg width="150" height="150" viewBox="0 0 150 150" fill="none" xmlns="http://www.w3.org/2000/svg">
<path d="M54.056 55.3686H42.7148L89.021 0H100.36L54.056 55.3686Z" fill="#0063B6"/>
<path d="M78.1524 68.5571H66.8125L113.117 13.1888H124.457L78.1524 68.5571Z" fill="#0063B6"/>
<path d="M77.4158 47.8345H67.7305L90.3131 20.743H99.999" fill="#FF2D2D"/>
<path d="M6.90773 119.017H17.6112C18.9357 119.017 19.9184 118.894 20.5608 118.644C21.203 118.396 21.7319 118.009 22.1474 117.482C22.5629 116.954 22.9384 116.214 23.2741 115.26C23.6099 114.305 24.0146 112.825 24.4898 110.816H27.3949V121.76H0V120.298L20.3109 83.7937H9.5476C8.77646 83.7937 8.16943 83.8585 7.72482 83.988C7.28027 84.1176 6.88018 84.316 6.52449 84.5846C6.16883 84.8526 5.81778 85.246 5.47131 85.7628C5.12485 86.2789 4.77839 86.9901 4.43346 87.8955C4.087 88.8003 3.72675 89.9294 3.35116 91.2801H0.446107V81.05H27.191V82.4812L6.90773 119.017Z" fill="#0063B6"/>
<path d="M56.4237 116.69C55.1589 118.022 53.9969 119.066 52.9391 119.822C51.8813 120.577 50.7194 121.17 49.4546 121.597C48.1899 122.024 46.7964 122.238 45.2741 122.238C41.2024 122.238 38.1287 121.011 36.053 118.554C33.9773 116.1 32.9395 112.476 32.9395 107.683C32.9395 104.721 33.4683 102.106 34.5261 99.839C35.5839 97.5726 37.0909 95.8237 39.0485 94.5903C41.0061 93.3583 43.2581 92.7412 45.8091 92.7412C47.805 92.7412 49.5052 93.0589 50.9094 93.6958C52.3121 94.3326 53.4343 95.2026 54.2744 96.3051C55.1144 97.4089 55.766 98.7999 56.232 100.481C56.6965 102.161 56.9587 104.353 57.0185 107.057H38.3372V107.594C38.3372 109.941 38.5993 111.913 39.1221 113.514C39.6464 115.114 40.5049 116.366 41.7021 117.272C42.8979 118.177 44.4539 118.629 46.3717 118.629C47.9921 118.629 49.45 118.327 50.7454 117.719C52.0392 117.113 53.33 116.123 54.6147 114.75L56.4237 116.69ZM51.4429 104.582C51.3249 102.435 51.0581 100.681 50.6426 99.318C50.2272 97.9565 49.6048 96.9126 48.7739 96.1864C47.943 95.4603 46.8562 95.0976 45.5117 95.0976C43.4758 95.0976 41.8493 95.9178 40.6337 97.5589C39.418 99.1994 38.7021 101.54 38.4844 104.582H51.4429Z" fill="#0063B6"/>
<path d="M70.3585 98.1999L70.7737 98.2899C71.8605 96.9576 72.8696 95.909 73.7982 95.1426C74.7276 94.3776 75.7298 93.7851 76.8078 93.3678C77.8851 92.9498 79.1055 92.7412 80.4699 92.7412C81.6167 92.7412 82.6544 92.8019 83.5837 92.9205V99.781H80.2326C79.7587 98.7071 79.2542 97.9271 78.721 97.4396C78.1871 96.9528 77.4562 96.7087 76.5269 96.7087C75.8157 96.7087 75.1094 96.9174 74.4071 97.3353C73.7048 97.7533 73.0291 98.3587 72.376 99.1544C71.7241 99.9501 71.2735 100.695 71.0266 101.392C70.7798 102.088 70.6557 102.913 70.6557 103.867V114.304C70.6557 116.113 70.7648 117.361 70.9823 118.047C71.1998 118.734 71.5605 119.236 72.0644 119.554C72.5689 119.872 73.3244 120.12 74.3335 120.298V121.76H62.3836V120.298C63.1348 120.06 63.6729 119.851 63.9994 119.672C64.3259 119.494 64.6065 119.245 64.8441 118.928C65.0817 118.61 65.2595 118.123 65.3776 117.466C65.4956 116.81 65.5554 115.787 65.5554 114.394V101.391C65.5554 100.118 65.5355 99.0944 65.4956 98.3192C65.4558 97.5433 65.3178 96.9221 65.0801 96.4544C64.8425 95.9874 64.4823 95.6389 63.9978 95.4105C63.5134 95.1821 62.8267 94.9885 61.9375 94.8296V93.2778L68.8762 92.9805H70.685L70.3585 98.1999Z" fill="#0063B6"/>
<path d="M99.4759 122.238C95.3645 122.238 92.2261 121.02 90.0613 118.586C87.8972 116.151 86.8145 112.545 86.8145 107.775C86.8145 104.493 87.3831 101.721 88.519 99.4537C89.6549 97.1874 91.2129 95.5019 93.1888 94.3994C95.1647 93.2955 97.4181 92.7446 99.9497 92.7446C104.179 92.7446 107.382 93.9828 109.557 96.4578C111.731 98.9328 112.819 102.487 112.819 107.119C112.819 110.421 112.275 113.204 111.188 115.47C110.101 117.737 108.559 119.432 106.563 120.556C104.565 121.677 102.205 122.238 99.4759 122.238ZM92.419 107.147C92.419 111.242 93.0661 114.39 94.3615 116.585C95.6556 118.783 97.5088 119.88 99.9204 119.88C101.244 119.88 102.372 119.559 103.301 118.911C104.23 118.264 104.986 117.395 105.569 116.302C106.152 115.209 106.572 113.941 106.829 112.499C107.086 111.058 107.215 109.552 107.215 107.981C107.215 105.059 106.893 102.634 106.25 100.704C105.607 98.7767 104.733 97.3599 103.625 96.4551C102.519 95.5496 101.254 95.0976 99.8297 95.0976C97.4386 95.0976 95.6052 96.1415 94.3295 98.2299C93.0538 100.318 92.419 103.29 92.419 107.147Z" fill="#0063B6"/>
<path d="M130.192 81.0521V82.5139C129.243 82.6524 128.561 82.9114 128.146 83.2892C127.73 83.6669 127.523 84.1837 127.523 84.8403C127.523 85.3974 127.71 86.0928 128.086 86.928C128.461 87.764 128.995 88.7574 129.686 89.9103L133.985 97.1581L138.225 90.2683C138.856 89.2353 139.332 88.409 139.648 87.7933C139.964 87.1769 140.186 86.6601 140.315 86.2421C140.443 85.8242 140.508 85.3974 140.508 84.959C140.508 84.3426 140.33 83.821 139.974 83.3942C139.619 82.9667 139.026 82.6742 138.196 82.5139V81.0521H149.197V82.5139C148.465 82.7526 147.808 83.0996 147.225 83.5578C146.643 84.0153 146.019 84.6814 145.358 85.5562C144.696 86.4317 143.752 87.8137 142.527 89.701L135.826 100.138L143.358 112.605C144.425 114.376 145.191 115.612 145.656 116.319C146.12 117.025 146.556 117.622 146.96 118.108C147.365 118.595 147.801 119.017 148.265 119.375C148.729 119.732 149.307 120.041 149.999 120.3V121.762H136.982V120.3C137.891 120.142 138.563 119.889 138.998 119.54C139.432 119.193 139.651 118.67 139.651 117.975C139.651 117.418 139.507 116.801 139.221 116.126C138.935 115.451 138.495 114.615 137.902 113.621L132.535 104.614L126.871 113.949C125.923 115.52 125.449 116.812 125.449 117.825C125.449 118.481 125.627 119.019 125.982 119.435C126.338 119.852 126.931 120.142 127.76 120.3V121.762H116.553V120.3C117.284 120.082 117.886 119.819 118.362 119.511C118.835 119.202 119.291 118.811 119.727 118.333C120.16 117.856 120.646 117.249 121.18 116.513C121.713 115.777 122.562 114.495 123.729 112.666L130.727 101.69L122.366 87.8519C121.575 86.5796 120.977 85.6544 120.573 85.0783C120.168 84.5015 119.792 84.0344 119.446 83.6764C119.099 83.3185 118.788 83.0655 118.512 82.9162C118.235 82.7662 117.919 82.6326 117.563 82.5139V81.0521H130.192Z" fill="#FF2D2D"/>
<path d="M14.4321 143.703C14.3662 144.01 14.3247 144.235 14.3064 144.377C14.288 144.519 14.2788 144.637 14.2788 144.733C14.2788 144.913 14.3079 145.055 14.3693 145.157C14.429 145.26 14.5225 145.337 14.6483 145.391C14.7739 145.445 14.9809 145.489 15.2676 145.518L15.1863 145.961H12.4023L13.7591 139.871C13.8372 139.523 13.891 139.243 13.9201 139.035C13.9492 138.827 13.9645 138.654 13.9645 138.516C13.9645 138.341 13.9384 138.206 13.8878 138.109C13.8373 138.013 13.7514 137.94 13.6319 137.891C13.5123 137.844 13.3053 137.813 13.0125 137.801L13.1106 137.321L15.3028 137.239H15.8333L14.4321 143.703ZM16.6504 133.783L16.2364 135.537H14.6467L15.0606 133.783H16.6504Z" fill="#0063B6"/>
<path d="M22.535 139.43C22.4691 138.887 22.3142 138.495 22.0721 138.251C21.8298 138.005 21.4543 137.885 20.9453 137.885C20.6632 137.885 20.4088 137.938 20.1819 138.044C19.9549 138.149 19.7741 138.303 19.6423 138.505C19.5104 138.707 19.4445 138.943 19.4445 139.214C19.4445 139.438 19.4889 139.64 19.5794 139.825C19.6698 140.008 19.8201 140.199 20.0331 140.398C20.2462 140.597 20.5436 140.826 20.9269 141.085C21.5079 141.476 21.9157 141.855 22.1487 142.223C22.3817 142.59 22.4998 143.015 22.4998 143.496C22.4998 144.062 22.3648 144.543 22.095 144.938C21.8252 145.333 21.4573 145.626 20.9897 145.819C20.5221 146.011 19.9963 146.109 19.4092 146.109C18.8818 146.109 18.3898 146.07 17.9314 145.991C17.473 145.913 17.0284 145.814 16.5977 145.694L17.0192 143.741H17.7198C17.7613 144.295 17.9191 144.71 18.192 144.984C18.4649 145.259 18.8619 145.396 19.3816 145.396C19.9151 145.396 20.3306 145.262 20.6295 144.994C20.9284 144.725 21.0786 144.372 21.0786 143.933C21.0786 143.674 21.0342 143.443 20.9438 143.237C20.8533 143.032 20.7138 142.836 20.5221 142.65C20.3306 142.463 20.0577 142.249 19.7051 142.008C19.3279 141.749 19.0229 141.506 18.7883 141.276C18.5553 141.047 18.3729 140.796 18.2456 140.522C18.1169 140.248 18.0525 139.945 18.0525 139.613C18.0525 139.114 18.1751 138.681 18.4204 138.312C18.6657 137.945 19.0153 137.664 19.4674 137.472C19.9197 137.279 20.4486 137.182 21.0526 137.182C22.0414 137.182 22.9121 137.312 23.6664 137.57L23.2525 139.431H22.535V139.43Z" fill="#0063B6"/>
<path d="M32.008 145.962H29.1872L30.3186 141.371C30.4029 141.04 30.4765 140.704 30.5394 140.364C30.6022 140.024 30.6344 139.715 30.6344 139.438C30.6344 139.005 30.5623 138.696 30.4183 138.511C30.2741 138.328 30.0319 138.235 29.6901 138.235C29.4448 138.235 29.1735 138.339 28.8776 138.542C28.5817 138.747 28.2674 139.059 27.9394 139.477C27.6098 139.896 27.3476 140.295 27.1529 140.678C26.9582 141.06 26.8034 141.517 26.6899 142.047L25.8728 145.959H24.3184L26.6271 135.632C26.693 135.332 26.739 135.113 26.7666 134.977C26.7942 134.841 26.8126 134.716 26.8249 134.602C26.8371 134.488 26.8433 134.385 26.8433 134.295C26.8433 134.042 26.7666 133.865 26.6149 133.762C26.4615 133.66 26.1887 133.603 25.7931 133.59L25.9005 133.121L28.1723 133.039H28.6936L27.1483 139.301L27.2556 139.336C27.8183 138.583 28.3548 138.035 28.8638 137.692C29.3728 137.349 29.8909 137.177 30.4183 137.177C30.9992 137.177 31.4392 137.339 31.7381 137.66C32.0371 137.982 32.1873 138.46 32.1873 139.093C32.1873 139.478 32.1275 139.942 32.008 140.484L31.2537 143.7C31.194 143.959 31.1525 144.167 31.128 144.323C31.1035 144.48 31.0928 144.616 31.0928 144.73C31.0928 144.917 31.125 145.061 31.1878 145.164C31.2506 145.267 31.3457 145.342 31.476 145.393C31.6048 145.444 31.8102 145.485 32.0908 145.515L32.008 145.962Z" fill="#0063B6"/>
<path d="M37.057 146.116C36.128 146.116 35.409 145.854 34.897 145.33C34.3849 144.806 34.1289 144.053 34.1289 143.071C34.1289 142.71 34.1734 142.284 34.2638 141.797C34.3773 141.165 34.5398 140.605 34.7483 140.116C35.0181 139.509 35.363 138.983 35.7861 138.541C36.2092 138.098 36.6936 137.761 37.2409 137.529C37.7882 137.298 38.3769 137.18 39.0054 137.18C39.6938 137.18 40.2579 137.313 40.6979 137.578C41.1379 137.844 41.4567 138.203 41.6545 138.658C41.8522 139.113 41.9503 139.638 41.9503 140.233C41.9503 140.77 41.8752 141.342 41.7266 141.95C41.5104 142.841 41.1961 143.597 40.7837 144.218C40.3698 144.838 39.8532 145.31 39.2293 145.632C38.6084 145.955 37.8833 146.116 37.057 146.116ZM35.7018 143.459C35.7018 144.123 35.8382 144.611 36.1111 144.927C36.384 145.243 36.7948 145.402 37.3468 145.402C37.9339 145.402 38.4551 145.137 38.9104 144.607C39.3657 144.076 39.7244 143.334 39.9881 142.38C40.2518 141.425 40.3837 140.587 40.3837 139.863C40.3837 139.213 40.2579 138.724 40.0065 138.395C39.7551 138.067 39.3626 137.904 38.8292 137.904C38.2067 137.904 37.6625 138.166 37.1996 138.69C36.735 139.214 36.3702 139.963 36.1035 140.94C35.8352 141.914 35.7018 142.755 35.7018 143.459Z" fill="#0063B6"/>
<path d="M51.1779 145.962H48.348L49.4885 141.371C49.5605 141.077 49.6311 140.751 49.7001 140.396C49.769 140.041 49.8028 139.721 49.8028 139.438C49.8028 139.011 49.7292 138.704 49.582 138.516C49.4348 138.329 49.2064 138.235 48.8952 138.235C48.6438 138.235 48.3724 138.334 48.0827 138.528C47.7915 138.724 47.4879 139.016 47.1706 139.404C46.8533 139.792 46.585 140.187 46.3673 140.588C46.1481 140.989 45.9794 141.475 45.8599 142.047L45.0428 145.959H43.4883L44.8542 139.788C44.8834 139.649 44.9247 139.444 44.9753 139.174C45.0259 138.902 45.052 138.677 45.052 138.497C45.052 138.329 45.0259 138.198 44.9753 138.104C44.9247 138.011 44.8373 137.942 44.7147 137.896C44.5921 137.851 44.3836 137.819 44.0907 137.8L44.1981 137.321L46.237 137.239H46.749L46.1465 139.588L46.2538 139.623C46.841 138.792 47.4066 138.176 47.9509 137.775C48.4951 137.374 49.0408 137.174 49.5851 137.174C50.1661 137.174 50.6061 137.336 50.905 137.657C51.2039 137.979 51.3542 138.457 51.3542 139.089C51.3542 139.307 51.3343 139.543 51.2959 139.798C51.2576 140.055 51.2131 140.281 51.1656 140.48L50.4113 143.697C50.3102 144.13 50.2581 144.474 50.2581 144.726C50.2581 144.907 50.2872 145.049 50.3485 145.151C50.4083 145.254 50.5018 145.331 50.6275 145.385C50.7532 145.439 50.9602 145.483 51.2469 145.512L51.1779 145.962Z" fill="#0063B6"/>
<path d="M59.1548 139.494C59.1425 139.036 59.1057 138.704 59.0429 138.499C58.9801 138.294 58.8789 138.141 58.7378 138.038C58.5968 137.936 58.3975 137.884 58.1399 137.884C57.5344 137.884 56.9917 138.126 56.5104 138.611C56.0274 139.097 55.635 139.783 55.3284 140.672C55.0233 141.56 54.8701 142.414 54.8701 143.233C54.8701 143.486 54.893 143.723 54.9375 143.947C54.9819 144.17 55.0601 144.363 55.1705 144.525C55.2809 144.687 55.4281 144.817 55.6105 144.909C55.7929 145.003 56.0244 145.049 56.3064 145.049C56.8507 145.049 57.3228 144.946 57.7214 144.738C58.12 144.53 58.5401 144.203 58.9831 143.757L59.5304 144.307C58.9678 144.934 58.4006 145.391 57.8287 145.681C57.257 145.972 56.6422 146.115 55.983 146.115C55.1153 146.115 54.4561 145.856 54.0069 145.338C53.5578 144.819 53.334 144.067 53.334 143.079C53.334 142.434 53.4536 141.726 53.6927 140.956C53.9319 140.184 54.2829 139.507 54.7443 138.923C55.2058 138.339 55.7439 137.902 56.3617 137.613C56.9779 137.322 57.6372 137.179 58.3377 137.179C58.816 137.179 59.2345 137.207 59.5902 137.261C59.9459 137.315 60.2616 137.378 60.5376 137.45L60.0976 139.492H59.1548V139.494Z" fill="#0063B6"/>
<path d="M68.8107 145.962H65.99L67.1213 141.371C67.2057 141.04 67.2792 140.704 67.3421 140.364C67.405 140.024 67.4371 139.715 67.4371 139.438C67.4371 139.005 67.3651 138.696 67.221 138.511C67.0769 138.328 66.8347 138.235 66.4928 138.235C66.2475 138.235 65.9761 138.339 65.6803 138.542C65.3845 138.747 65.0701 139.059 64.7421 139.477C64.4125 139.896 64.1504 140.295 63.9556 140.678C63.761 141.06 63.6061 141.517 63.4927 142.047L62.6756 145.959H61.1211L63.4298 135.632C63.4957 135.332 63.5418 135.113 63.5694 134.977C63.5969 134.841 63.6153 134.716 63.6276 134.602C63.6399 134.488 63.646 134.385 63.646 134.295C63.646 134.042 63.5694 133.865 63.4176 133.762C63.2643 133.66 62.9914 133.603 62.5959 133.59L62.7032 133.121L64.9751 133.039H65.4963L63.9511 139.301L64.0584 139.336C64.621 138.583 65.1575 138.035 65.6665 137.692C66.1755 137.349 66.6936 137.177 67.221 137.177C67.802 137.177 68.242 137.339 68.5407 137.66C68.84 137.982 68.99 138.46 68.99 139.093C68.99 139.478 68.93 139.942 68.8107 140.484L68.0564 143.7C67.9967 143.959 67.9553 144.167 67.9308 144.323C67.9062 144.48 67.8955 144.616 67.8955 144.73C67.8955 144.917 67.9277 145.061 67.9906 145.164C68.0534 145.267 68.1484 145.342 68.2788 145.393C68.4077 145.444 68.6129 145.485 68.8932 145.515L68.8107 145.962Z" fill="#0063B6"/>
<path d="M77.5437 140.929H77.8321C78.0176 140.929 78.2187 140.893 78.4348 140.821C78.651 140.749 78.8807 140.636 79.1262 140.482C79.371 140.327 79.701 140.085 80.1148 139.754C80.4257 139.501 80.6562 139.285 80.8062 139.108C80.9562 138.93 81.0578 138.775 81.111 138.642C81.1648 138.51 81.1921 138.383 81.1921 138.263C81.1921 137.968 80.9882 137.802 80.5826 137.767L80.6801 137.324H83.5901L83.7605 137.767C83.2635 138.218 82.7364 138.66 82.1794 139.094L79.9076 140.874L81.2555 144.298C81.3748 144.605 81.4976 144.842 81.623 145.007C81.7492 145.174 81.8944 145.296 82.0587 145.373C82.2223 145.451 82.4344 145.499 82.6914 145.518L82.5933 145.961H80.196L78.8855 142.247C78.801 142.013 78.7287 141.853 78.6694 141.767C78.6094 141.683 78.5405 141.623 78.4621 141.587C78.3837 141.552 78.2582 141.534 78.0851 141.534H77.4196L76.4862 145.961H74.9316L77.2403 135.634C77.3064 135.333 77.3521 135.114 77.3801 134.979C77.4073 134.843 77.4257 134.717 77.438 134.604C77.4503 134.49 77.4564 134.386 77.4564 134.297C77.4564 134.044 77.3801 133.867 77.228 133.764C77.0746 133.661 76.8019 133.605 76.4064 133.592L76.5135 133.122L78.7853 133.04H79.3069L77.5437 140.929Z" fill="#0063B6"/>
<path d="M90.6939 137.768L91.5203 137.172L92.0951 137.316L90.7219 143.452C90.6373 143.812 90.5807 144.092 90.5514 144.288C90.5207 144.483 90.5071 144.644 90.5071 144.77C90.5071 145.017 90.576 145.196 90.7137 145.308C90.8521 145.419 91.1153 145.49 91.5053 145.521L91.4235 145.964H88.8544L89.4203 143.695L89.3037 143.66C88.7289 144.503 88.1828 145.12 87.6694 145.512C87.1546 145.904 86.6098 146.099 86.035 146.099C85.3757 146.099 84.8657 145.85 84.5037 145.35C84.1416 144.85 83.9609 144.149 83.9609 143.245C83.9609 142.667 84.0271 142.087 84.1587 141.506C84.2909 140.924 84.49 140.374 84.7566 139.852C85.0232 139.332 85.3423 138.872 85.7132 138.474C86.0841 138.076 86.5137 137.761 87.0025 137.526C87.49 137.292 88.0219 137.173 88.5966 137.173C88.9675 137.173 89.3221 137.216 89.6562 137.304C89.9875 137.39 90.3339 137.544 90.6939 137.768ZM89.903 140.461C89.9569 140.214 89.9937 139.999 90.01 139.819C90.0271 139.638 90.038 139.443 90.038 139.231C90.038 138.761 89.9398 138.42 89.7421 138.206C89.5444 137.992 89.2144 137.885 88.7535 137.885C88.5019 137.885 88.2625 137.926 88.0341 138.007C87.8057 138.089 87.5759 138.224 87.3428 138.414C87.1096 138.604 86.8859 138.852 86.6732 139.159C86.4598 139.466 86.2669 139.84 86.0937 140.28C85.9205 140.719 85.7855 141.192 85.6887 141.694C85.5919 142.197 85.5448 142.687 85.5448 143.162C85.5448 143.788 85.6307 144.257 85.8005 144.567C85.9709 144.877 86.2573 145.032 86.6589 145.032C86.8444 145.032 87.038 144.991 87.2384 144.906C87.4396 144.821 87.6619 144.667 87.9087 144.44C88.1535 144.215 88.433 143.882 88.7439 143.442C89.0248 143.039 89.2485 142.64 89.4141 142.246C89.5778 141.851 89.7141 141.385 89.8232 140.851L89.903 140.461Z" fill="#0063B6"/>
<path d="M95.1574 146.116C94.9535 147.08 94.6733 147.845 94.3174 148.41C93.9601 148.976 93.5279 149.383 93.0192 149.63C92.5099 149.877 91.8935 150 91.1688 150C90.9049 150 90.669 149.97 90.459 149.909L90.6656 149.113C90.8101 149.162 91.0188 149.186 91.2942 149.186C91.6119 149.186 91.871 149.145 92.0715 149.06C92.2726 148.975 92.4581 148.838 92.6279 148.648C92.7983 148.458 92.9606 148.181 93.1126 147.817C93.264 147.453 93.4099 146.972 93.5476 146.375L95.3708 138.235H94.284L94.391 137.774C94.6835 137.745 94.8908 137.703 95.0101 137.652C95.1301 137.601 95.2283 137.532 95.302 137.444C95.377 137.356 95.4445 137.233 95.5038 137.074C95.5638 136.915 95.651 136.639 95.7649 136.247C96.082 135.163 96.5708 134.349 97.2336 133.803C97.8956 133.259 98.737 132.986 99.7611 132.986C100.348 132.986 100.854 133.034 101.279 133.131L100.928 134.667H100.137C100.052 134.323 99.9438 134.076 99.8088 133.927C99.6738 133.775 99.4747 133.702 99.2108 133.702C98.8692 133.702 98.5795 133.796 98.3401 133.982C98.1008 134.169 97.8956 134.451 97.7251 134.827C97.5554 135.204 97.3972 135.707 97.2533 136.34L97.0297 137.325H99.0867L98.889 138.238H96.8224L95.1574 146.116Z" fill="#0063B6"/>
<path d="M101.93 146.116C101.001 146.116 100.282 145.854 99.7704 145.33C99.2583 144.806 99.002 144.053 99.002 143.071C99.002 142.71 99.0463 142.284 99.137 141.797C99.2501 141.165 99.4131 140.605 99.6217 140.116C99.891 139.509 100.236 138.983 100.659 138.541C101.082 138.098 101.567 137.761 102.114 137.529C102.661 137.298 103.25 137.18 103.878 137.18C104.567 137.18 105.131 137.313 105.571 137.578C106.011 137.844 106.33 138.203 106.528 138.658C106.726 139.113 106.824 139.638 106.824 140.233C106.824 140.77 106.748 141.342 106.599 141.95C106.383 142.841 106.069 143.597 105.657 144.218C105.243 144.838 104.724 145.31 104.103 145.632C103.48 145.955 102.757 146.116 101.93 146.116ZM100.574 143.459C100.574 144.123 100.71 144.611 100.983 144.927C101.255 145.243 101.667 145.402 102.218 145.402C102.805 145.402 103.327 145.137 103.782 144.607C104.237 144.076 104.596 143.334 104.859 142.38C105.123 141.425 105.255 140.587 105.255 139.863C105.255 139.213 105.129 138.724 104.878 138.395C104.627 138.067 104.234 137.904 103.701 137.904C103.079 137.904 102.534 138.166 102.071 138.69C101.607 139.214 101.242 139.963 100.975 140.94C100.707 141.914 100.574 142.755 100.574 143.459Z" fill="#0063B6"/>
<path d="M112.115 133.042H112.645L110.311 143.703C110.245 143.993 110.203 144.21 110.185 144.358C110.166 144.506 110.157 144.631 110.157 144.733C110.157 144.913 110.187 145.055 110.248 145.157C110.307 145.26 110.401 145.337 110.527 145.391C110.652 145.445 110.86 145.488 111.146 145.517L111.074 145.961H108.271L110.59 135.587C110.65 135.322 110.691 135.123 110.715 134.991C110.74 134.858 110.757 134.732 110.769 134.611C110.781 134.491 110.787 134.386 110.787 134.295C110.787 134.115 110.753 133.978 110.689 133.884C110.623 133.791 110.528 133.723 110.406 133.68C110.283 133.638 110.062 133.607 109.745 133.589L109.852 133.119L112.115 133.042Z" fill="#0063B6"/>
<path d="M119.975 137.768L120.802 137.172L121.376 137.316L120.002 143.452C119.919 143.812 119.862 144.092 119.833 144.288C119.802 144.483 119.788 144.644 119.788 144.77C119.788 145.017 119.857 145.196 119.995 145.308C120.133 145.419 120.397 145.49 120.786 145.521L120.705 145.964H118.136L118.701 143.695L118.585 143.66C118.009 144.503 117.464 145.12 116.951 145.512C116.435 145.904 115.891 146.099 115.316 146.099C114.657 146.099 114.146 145.85 113.785 145.35C113.423 144.85 113.242 144.149 113.242 143.245C113.242 142.667 113.308 142.087 113.44 141.506C113.572 140.924 113.771 140.374 114.038 139.852C114.304 139.332 114.624 138.872 114.994 138.474C115.365 138.076 115.794 137.761 116.284 137.526C116.771 137.292 117.303 137.173 117.878 137.173C118.249 137.173 118.603 137.216 118.937 137.304C119.268 137.39 119.617 137.544 119.975 137.768ZM119.186 140.461C119.239 140.214 119.276 139.999 119.293 139.819C119.31 139.638 119.321 139.443 119.321 139.231C119.321 138.761 119.222 138.42 119.025 138.206C118.827 137.992 118.497 137.885 118.036 137.885C117.784 137.885 117.545 137.926 117.317 138.007C117.088 138.089 116.859 138.224 116.625 138.414C116.392 138.604 116.169 138.852 115.956 139.159C115.742 139.466 115.549 139.84 115.376 140.28C115.203 140.719 115.068 141.192 114.971 141.694C114.874 142.197 114.827 142.687 114.827 143.162C114.827 143.788 114.913 144.257 115.083 144.567C115.254 144.877 115.54 145.032 115.942 145.032C116.127 145.032 116.321 144.991 116.521 144.906C116.722 144.821 116.944 144.667 117.191 144.44C117.437 144.215 117.716 143.882 118.027 143.442C118.307 143.039 118.531 142.64 118.697 142.246C118.86 141.851 118.997 141.385 119.106 140.851L119.186 140.461Z" fill="#0063B6"/>
<path d="M128.221 144.3C127.73 144.896 127.244 145.346 126.766 145.65C126.286 145.954 125.777 146.107 125.239 146.107C124.604 146.107 124.13 145.945 123.82 145.62C123.508 145.294 123.352 144.822 123.352 144.201C123.352 143.822 123.406 143.398 123.513 142.927L124.627 138.238H123.289L123.387 137.777C123.74 137.735 124.02 137.658 124.227 137.547C124.434 137.436 124.607 137.288 124.748 137.104C124.889 136.921 125.02 136.682 125.14 136.386C125.259 136.091 125.409 135.66 125.588 135.094H126.828L126.335 137.325H129.182L128.984 138.238H126.128L125.266 141.743C125.027 142.719 124.908 143.448 124.908 143.929C124.908 144.296 124.987 144.576 125.146 144.765C125.303 144.955 125.536 145.05 125.841 145.05C126.117 145.05 126.406 144.944 126.708 144.73C127.01 144.515 127.34 144.191 127.699 143.758L128.221 144.3Z" fill="#0063B6"/>
<path d="M131.321 143.703C131.255 144.01 131.214 144.235 131.195 144.377C131.177 144.519 131.168 144.637 131.168 144.733C131.168 144.913 131.197 145.055 131.258 145.157C131.318 145.26 131.411 145.337 131.537 145.391C131.663 145.445 131.87 145.489 132.157 145.518L132.076 145.961H129.291L130.648 139.871C130.726 139.523 130.78 139.243 130.809 139.035C130.838 138.827 130.854 138.654 130.854 138.516C130.854 138.341 130.827 138.206 130.777 138.109C130.726 138.013 130.64 137.94 130.521 137.891C130.401 137.844 130.194 137.813 129.901 137.801L129.999 137.321L132.191 137.239H132.722L131.321 143.703ZM133.539 133.783L133.126 135.537H131.536L131.949 133.783H133.539Z" fill="#0063B6"/>
</svg>
