<svg width="150" height="150" viewBox="0 0 150 150" fill="none" xmlns="http://www.w3.org/2000/svg">
<path d="M54.056 55.0454H42.7148L89.0206 0H100.36L54.056 55.0454Z" fill="#0063B6"/>
<path d="M78.1541 68.1571H66.8145L113.119 13.1117H124.458L78.1541 68.1571Z" fill="#0063B6"/>
<path d="M77.416 47.5552H67.7305L90.3131 20.6219H99.9986" fill="#FF2D2D"/>
<path d="M6.9077 118.323H17.6111C18.9356 118.323 19.9183 118.201 20.5606 117.952C21.2029 117.705 21.7318 117.321 22.1473 116.796C22.5627 116.272 22.9383 115.536 23.274 114.587C23.6097 113.638 24.0144 112.167 24.4897 110.169H27.3947V121.05H0V119.597L20.3107 83.3048H9.54752C8.77642 83.3048 8.16935 83.3692 7.72478 83.498C7.28021 83.6268 6.8801 83.8245 6.52445 84.0913C6.16879 84.358 5.81774 84.7489 5.47128 85.2625C5.12482 85.776 4.77836 86.4828 4.43343 87.3826C4.08698 88.2825 3.72672 89.4047 3.35114 90.7476H0.446104V80.5776H27.1908V82.0003L6.9077 118.323Z" fill="#0063B6"/>
<path d="M56.4235 116.01C55.1587 117.334 53.9967 118.372 52.939 119.123C51.8812 119.874 50.7192 120.463 49.4545 120.888C48.1897 121.312 46.7962 121.525 45.274 121.525C41.2023 121.525 38.1287 120.305 36.053 117.863C33.9773 115.423 32.9395 111.82 32.9395 107.055C32.9395 104.111 33.4683 101.511 34.5261 99.2571C35.5839 97.0036 37.0908 95.2651 39.0485 94.0387C41.0061 92.8139 43.2581 92.2007 45.809 92.2007C47.8049 92.2007 49.505 92.5165 50.9093 93.1496C52.312 93.7827 53.4341 94.6473 54.2742 95.7434C55.1143 96.8411 55.7658 98.2238 56.2318 99.8948C56.6963 101.566 56.9585 103.744 57.0183 106.433H38.3371V106.967C38.3371 109.3 38.5993 111.26 39.122 112.852C39.6463 114.443 40.5048 115.688 41.7021 116.588C42.8978 117.488 44.4538 117.937 46.3716 117.937C47.992 117.937 49.4499 117.636 50.7452 117.032C52.0391 116.43 53.3299 115.446 54.6145 114.081L56.4235 116.01ZM51.4428 103.973C51.3247 101.837 51.058 100.094 50.6425 98.7389C50.2271 97.3853 49.6047 96.3474 48.7738 95.6254C47.9429 94.9034 46.856 94.5431 45.5116 94.5431C43.4758 94.5431 41.8492 95.3587 40.6336 96.9898C39.4179 98.6209 38.702 100.948 38.4843 103.973H51.4428Z" fill="#0063B6"/>
<path d="M70.3583 97.6275L70.7737 97.7164C71.8606 96.3919 72.8693 95.3495 73.7983 94.5876C74.7273 93.8272 75.7299 93.2385 76.8076 92.8231C77.8853 92.4076 79.1056 92.2007 80.4699 92.2007C81.6166 92.2007 82.6545 92.2605 83.5835 92.3785V99.1988H80.2323C79.7586 98.1319 79.2543 97.3562 78.7208 96.8717C78.1873 96.3873 77.4561 96.1451 76.5271 96.1451C75.8157 96.1451 75.109 96.352 74.4069 96.7675C73.7048 97.1829 73.0288 97.7854 72.3757 98.5764C71.7242 99.3675 71.2735 100.108 71.0267 100.801C70.7798 101.492 70.6557 102.312 70.6557 103.261V113.638C70.6557 115.436 70.7645 116.677 70.9822 117.359C71.1999 118.041 71.5601 118.541 72.0645 118.856C72.5689 119.172 73.3246 119.419 74.3333 119.597V121.05H62.3836V119.597C63.1348 119.359 63.6729 119.152 63.9994 118.975C64.3259 118.797 64.6065 118.55 64.8441 118.234C65.0817 117.918 65.2595 117.434 65.3776 116.781C65.4956 116.129 65.5554 115.111 65.5554 113.727V100.799C65.5554 99.5346 65.5355 98.5166 65.4956 97.7455C65.4557 96.9744 65.3178 96.3566 65.0802 95.8922C64.8425 95.4277 64.4823 95.0812 63.9979 94.8543C63.5134 94.6274 62.8266 94.4343 61.9375 94.2764V92.7342L68.8759 92.4383H70.6848L70.3583 97.6275Z" fill="#0063B6"/>
<path d="M99.4755 121.526C95.364 121.526 92.226 120.314 90.0614 117.894C87.8968 115.473 86.8145 111.889 86.8145 107.146C86.8145 103.884 87.3832 101.127 88.5191 98.8739C89.6551 96.6204 91.2126 94.9449 93.1887 93.8488C95.1647 92.7511 97.4182 92.2039 99.9492 92.2039C104.179 92.2039 107.381 93.4348 109.557 95.8953C111.73 98.3558 112.819 101.889 112.819 106.494C112.819 109.777 112.275 112.544 111.188 114.797C110.101 117.051 108.559 118.735 106.563 119.853C104.565 120.968 102.204 121.526 99.4755 121.526ZM92.4191 106.522C92.4191 110.594 93.066 113.723 94.3614 115.906C95.6553 118.09 97.5087 119.182 99.9201 119.182C101.245 119.182 102.371 118.861 103.3 118.217C104.229 117.575 104.985 116.71 105.569 115.623C106.152 114.537 106.572 113.276 106.829 111.843C107.085 110.41 107.214 108.914 107.214 107.351C107.214 104.446 106.892 102.035 106.25 100.117C105.608 98.201 104.732 96.7921 103.625 95.8923C102.519 94.9924 101.254 94.5432 99.8296 94.5432C97.4381 94.5432 95.6047 95.581 94.3292 97.6567C93.0538 99.7324 92.4191 102.688 92.4191 106.522Z" fill="#0063B6"/>
<path d="M130.194 80.5791V82.0324C129.245 82.1704 128.563 82.4279 128.147 82.8035C127.732 83.1791 127.525 83.6926 127.525 84.3457C127.525 84.8991 127.712 85.5905 128.087 86.4214C128.463 87.2522 128.997 88.2395 129.688 89.3862L133.986 96.5913L138.227 89.7418C138.858 88.7147 139.334 87.893 139.649 87.2814C139.965 86.6682 140.187 86.1546 140.316 85.7392C140.445 85.3237 140.509 84.8991 140.509 84.4637C140.509 83.8505 140.332 83.3324 139.976 82.9077C139.62 82.4831 139.027 82.1918 138.198 82.0324V80.5791H149.198V82.0324C148.467 82.27 147.81 82.6149 147.227 83.0702C146.644 83.5255 146.02 84.1878 145.36 85.057C144.698 85.9277 143.753 87.3013 142.528 89.1777L135.828 99.5546L143.359 111.949C144.426 113.709 145.193 114.938 145.657 115.64C146.122 116.342 146.557 116.936 146.962 117.419C147.366 117.903 147.802 118.323 148.266 118.679C148.731 119.034 149.309 119.341 150 119.599V121.052H136.983V119.599C137.893 119.441 138.564 119.189 138.999 118.843C139.433 118.498 139.652 117.978 139.652 117.287C139.652 116.733 139.508 116.12 139.223 115.449C138.936 114.777 138.497 113.946 137.903 112.958L132.536 104.003L126.873 113.284C125.924 114.846 125.451 116.131 125.451 117.138C125.451 117.79 125.629 118.325 125.984 118.739C126.34 119.152 126.933 119.441 127.762 119.599V121.052H116.555V119.599C117.286 119.381 117.888 119.12 118.364 118.814C118.837 118.507 119.293 118.118 119.728 117.642C120.162 117.169 120.648 116.565 121.181 115.833C121.715 115.102 122.564 113.827 123.731 112.009L130.729 101.097L122.368 87.3396C121.577 86.0749 120.979 85.1551 120.574 84.5818C120.17 84.0084 119.794 83.5439 119.447 83.1883C119.101 82.8326 118.79 82.5812 118.514 82.4325C118.236 82.2838 117.921 82.1504 117.565 82.0324V80.5791H130.194Z" fill="#FF2D2D"/>
<path d="M15.6143 143.521C14.1472 144.778 12.7645 145.407 11.4645 145.407C10.7455 145.407 10.1737 145.24 9.74906 144.904C9.32442 144.568 9.11133 144.125 9.11133 143.575C9.11133 142.922 9.37807 142.387 9.91002 141.967C10.4435 141.548 11.2545 141.137 12.3444 140.736C13.183 140.437 13.8253 140.121 14.2714 139.788C14.7175 139.456 14.9413 139.055 14.9413 138.589C14.9413 137.877 14.5228 137.521 13.6843 137.521C12.8764 137.521 11.9504 137.946 10.908 138.796L10.3331 138.123C11.069 137.53 11.7236 137.118 12.2954 136.883C12.8672 136.65 13.5003 136.532 14.1948 136.532C14.8953 136.532 15.4518 136.69 15.8657 137.004C16.2796 137.319 16.4851 137.737 16.4851 138.257C16.4851 138.904 16.2367 139.448 15.74 139.891C15.2433 140.334 14.3711 140.783 13.1263 141.238C12.234 141.556 11.5948 141.875 11.2085 142.195C10.8222 142.515 10.629 142.9 10.629 143.349C10.629 144.068 11.0184 144.427 11.7971 144.427C12.2279 144.427 12.7445 144.281 13.347 143.992C13.9495 143.702 14.5198 143.314 15.0578 142.828L15.6143 143.521Z" fill="#0063B6"/>
<path d="M24.2017 137.118L25.028 136.524L25.6028 136.669L24.2293 142.768C24.145 143.127 24.0882 143.405 24.0591 143.599C24.0285 143.794 24.0147 143.953 24.0147 144.079C24.0147 144.324 24.0836 144.502 24.2216 144.614C24.3596 144.724 24.6233 144.795 25.0126 144.826L24.9314 145.266H22.3621L22.9278 143.011L22.8113 142.975C22.2364 143.814 21.6906 144.427 21.1771 144.816C20.662 145.206 20.1178 145.4 19.5429 145.4C18.8837 145.4 18.3732 145.152 18.0114 144.655C17.6497 144.159 17.4688 143.461 17.4688 142.563C17.4688 141.988 17.5347 141.412 17.6665 140.834C17.7984 140.256 17.9976 139.708 18.2644 139.19C18.5311 138.672 18.85 138.215 19.221 137.82C19.592 137.424 20.0212 137.11 20.5102 136.877C20.9977 136.644 21.5297 136.526 22.1045 136.526C22.4755 136.526 22.8297 136.569 23.1638 136.656C23.495 136.742 23.843 136.895 24.2017 137.118ZM23.4122 139.794C23.4658 139.549 23.5026 139.336 23.5195 139.157C23.5364 138.977 23.5471 138.783 23.5471 138.572C23.5471 138.105 23.449 137.766 23.2512 137.553C23.0535 137.34 22.7239 137.234 22.2624 137.234C22.011 137.234 21.7719 137.274 21.5435 137.355C21.3166 137.437 21.0851 137.571 20.8521 137.76C20.6191 137.949 20.3952 138.195 20.1822 138.5C19.9691 138.806 19.7759 139.178 19.6027 139.615C19.4295 140.052 19.2946 140.521 19.198 141.021C19.1014 141.52 19.0539 142.008 19.0539 142.48C19.0539 143.103 19.1397 143.569 19.3099 143.877C19.48 144.185 19.7667 144.34 20.1684 144.34C20.3539 144.34 20.547 144.298 20.7478 144.214C20.9487 144.13 21.1709 143.976 21.4178 143.751C21.663 143.527 21.942 143.196 22.2532 142.759C22.5353 142.357 22.7576 141.962 22.9232 141.57C23.0872 141.177 23.2236 140.714 23.3325 140.182L23.4122 139.794Z" fill="#0063B6"/>
<path d="M28.305 146.854C28.2452 147.142 28.2069 147.363 28.1931 147.519C28.1777 147.675 28.1701 147.804 28.1701 147.905C28.1701 148.085 28.1992 148.226 28.2605 148.327C28.3203 148.428 28.4138 148.506 28.5395 148.56C28.6652 148.614 28.8722 148.655 29.1589 148.686L29.0868 149.126H26.3105L28.5825 139.137C28.6959 138.634 28.7526 138.203 28.7526 137.843C28.7526 137.676 28.7266 137.545 28.676 137.452C28.6254 137.36 28.538 137.291 28.4154 137.245C28.2927 137.2 28.0842 137.168 27.7914 137.15L27.8987 136.673L29.9376 136.592H30.4496L29.8472 138.927L29.9545 138.962C31.0629 137.34 32.1635 136.527 33.2596 136.527C33.9127 136.527 34.4201 136.776 34.7819 137.273C35.1437 137.769 35.3246 138.47 35.3246 139.374C35.3246 140.021 35.2357 140.671 35.0594 141.323C34.8831 141.976 34.6378 142.566 34.3235 143.092C34.0093 143.619 33.6582 144.051 33.2719 144.39C32.8856 144.729 32.4778 144.982 32.0501 145.149C31.6224 145.316 31.1717 145.4 30.698 145.4C29.9008 145.4 29.2401 145.227 28.7128 144.879L28.305 146.854ZM29.3827 142.138C29.3229 142.456 29.2846 142.698 29.2708 142.866C29.2554 143.034 29.2478 143.199 29.2478 143.36C29.2478 143.828 29.3474 144.166 29.5482 144.379C29.7491 144.593 30.094 144.698 30.5861 144.698C30.8912 144.698 31.1732 144.639 31.4308 144.519C31.6883 144.399 31.9321 144.226 32.1635 143.998C32.3935 143.771 32.602 143.495 32.7875 143.171C32.973 142.848 33.1385 142.472 33.2857 142.045C33.4329 141.617 33.5432 141.177 33.6184 140.725C33.6935 140.273 33.7303 139.849 33.7303 139.454C33.7303 138.825 33.6414 138.356 33.4651 138.048C33.2888 137.74 33.0082 137.585 32.625 137.585C32.3199 137.585 32.0179 137.688 31.722 137.895C31.4262 138.102 31.1012 138.433 30.747 138.887C30.3929 139.342 30.1185 139.791 29.9208 140.234C29.723 140.677 29.5666 141.186 29.4532 141.761L29.3827 142.138Z" fill="#0063B6"/>
<path d="M43.5669 137.118L44.3932 136.524L44.9681 136.669L43.5945 142.768C43.5102 143.127 43.4535 143.405 43.4243 143.599C43.3937 143.794 43.3799 143.953 43.3799 144.079C43.3799 144.324 43.4489 144.502 43.5868 144.614C43.7248 144.724 43.9885 144.795 44.3779 144.826L44.2966 145.266H41.7273L42.293 143.011L42.1765 142.975C41.6016 143.814 41.0559 144.427 40.5423 144.816C40.0272 145.206 39.483 145.4 38.9081 145.4C38.2489 145.4 37.7385 145.152 37.3767 144.655C37.0149 144.159 36.834 143.461 36.834 142.563C36.834 141.988 36.8999 141.412 37.0317 140.834C37.1636 140.256 37.3629 139.708 37.6296 139.19C37.8964 138.672 38.2152 138.215 38.5862 137.82C38.9572 137.424 39.3864 137.11 39.8755 136.877C40.363 136.644 40.8949 136.526 41.4698 136.526C41.8408 136.526 42.1949 136.569 42.5291 136.656C42.8602 136.742 43.2082 136.895 43.5669 137.118ZM42.7774 139.794C42.8311 139.549 42.8679 139.336 42.8847 139.157C42.9016 138.977 42.9123 138.783 42.9123 138.572C42.9123 138.105 42.8142 137.766 42.6165 137.553C42.4187 137.34 42.0891 137.234 41.6277 137.234C41.3763 137.234 41.1371 137.274 40.9087 137.355C40.6818 137.437 40.4503 137.571 40.2173 137.76C39.9843 137.949 39.7605 138.195 39.5474 138.5C39.3343 138.806 39.1411 139.178 38.9679 139.615C38.7947 140.052 38.6598 140.521 38.5632 141.021C38.4666 141.52 38.4191 142.008 38.4191 142.48C38.4191 143.103 38.505 143.569 38.6751 143.877C38.8453 144.185 39.1319 144.34 39.5336 144.34C39.7191 144.34 39.9123 144.298 40.1131 144.214C40.3139 144.13 40.5362 143.976 40.783 143.751C41.0283 143.527 41.3073 143.196 41.6185 142.759C41.9006 142.357 42.1228 141.962 42.2884 141.57C42.4524 141.177 42.5889 140.714 42.6977 140.182L42.7774 139.794Z" fill="#0063B6"/>
<path d="M49.1358 140.388H52.5667L53.3746 136.678H54.929L53.5187 143.02C53.4711 143.248 53.4328 143.444 53.4068 143.613C53.3792 143.78 53.3669 143.924 53.3669 144.044C53.3669 144.194 53.3884 144.315 53.4298 144.407C53.4711 144.501 53.534 144.574 53.6183 144.631C53.7026 144.688 53.8084 144.729 53.9372 144.757C54.0659 144.784 54.2146 144.806 54.3817 144.824L54.3005 145.264H51.5166L52.3965 141.186H48.9657L48.0857 145.264H46.5312L47.914 139.21C47.9861 138.893 48.0382 138.626 48.0719 138.412C48.1041 138.195 48.121 138.013 48.121 137.864C48.121 137.726 48.1041 137.613 48.0719 137.522C48.0382 137.432 47.983 137.363 47.9063 137.311C47.8282 137.26 47.727 137.222 47.6013 137.199C47.4756 137.174 47.3223 137.161 47.1429 137.155L47.241 136.678L49.4332 136.597H49.9636L49.1358 140.388Z" fill="#0063B6"/>
<path d="M64.3262 138.438V138.563C64.3262 138.605 64.3232 138.651 64.317 138.698C64.8383 137.962 65.3564 137.417 65.8715 137.064C66.3866 136.711 66.9201 136.534 67.4704 136.534C68.0392 136.534 68.4715 136.695 68.7689 137.013C69.0647 137.334 69.2134 137.809 69.2134 138.438C69.2134 138.821 69.1537 139.282 69.0341 139.82L68.2798 143.018C68.1787 143.449 68.1265 143.791 68.1265 144.042C68.1265 144.222 68.1557 144.363 68.217 144.464C68.2768 144.567 68.3703 144.643 68.496 144.697C68.6217 144.75 68.8287 144.793 69.1153 144.823L69.0341 145.262H66.2134L67.3447 140.699C67.429 140.369 67.5026 140.035 67.5655 139.698C67.6283 139.359 67.6605 139.052 67.6605 138.776C67.6605 138.346 67.5854 138.039 67.4367 137.855C67.2865 137.673 67.0504 137.581 66.7269 137.581C66.4939 137.581 66.2318 137.677 65.9405 137.869C65.6492 138.06 65.3457 138.353 65.0283 138.749C64.711 139.144 64.4519 139.535 64.2511 139.922C64.0503 140.308 63.8909 140.78 63.7713 141.336L62.9542 145.262H61.3997L62.433 140.699C62.5587 140.142 62.6445 139.73 62.689 139.463C62.7335 139.196 62.7565 138.968 62.7565 138.776C62.7565 138.346 62.6798 138.039 62.528 137.855C62.3747 137.673 62.1371 137.581 61.8137 137.581C61.5745 137.581 61.3093 137.679 61.018 137.872C60.7268 138.067 60.4202 138.367 60.0967 138.775C59.7732 139.183 59.5141 139.581 59.3195 139.974C59.1248 140.366 58.973 140.832 58.8657 141.37L58.0486 145.259H56.4941L57.86 139.124C57.8892 138.986 57.9306 138.783 57.9812 138.514C58.0317 138.244 58.0578 138.021 58.0578 137.841C58.0578 137.674 58.0317 137.544 57.9812 137.45C57.9306 137.358 57.8432 137.289 57.7205 137.243C57.5979 137.199 57.3894 137.167 57.0966 137.148L57.2039 136.672L59.252 136.59H59.7548L59.1616 138.917L59.2689 138.953C59.8192 138.133 60.368 137.522 60.9122 137.125C61.4565 136.727 62.0083 136.527 62.5648 136.527C63.1397 136.527 63.5766 136.691 63.8755 137.016C64.1775 137.349 64.3262 137.821 64.3262 138.438Z" fill="#0063B6"/>
<path d="M79.6965 136.776C79.9479 136.776 80.1702 136.79 80.3664 136.816C80.5611 136.843 80.7435 136.886 80.9137 136.946C81.0839 137.006 81.2494 137.082 81.4073 137.174C81.5652 137.268 81.7323 137.377 81.9055 137.502C81.9178 137.371 81.9285 137.213 81.9377 137.026C81.9469 136.84 81.9515 136.675 81.9515 136.532C81.9515 136.071 81.9193 135.64 81.8565 135.238C81.7936 134.837 81.6879 134.489 81.5376 134.191C81.3874 133.895 81.1866 133.659 80.9352 133.486C80.6837 133.313 80.3664 133.225 79.9832 133.225C79.7134 133.225 79.4497 133.244 79.1921 133.279C78.9346 133.314 78.6418 133.392 78.3122 133.512L78.1144 132.865C78.5222 132.727 78.9162 132.624 79.2994 132.555C79.6827 132.486 80.0905 132.453 80.5212 132.453C81.0302 132.453 81.4671 132.546 81.832 132.732C82.1968 132.917 82.4973 133.187 82.7349 133.54C82.971 133.894 83.1442 134.325 83.2561 134.834C83.3665 135.342 83.4217 135.917 83.4217 136.558C83.4217 136.756 83.414 136.975 83.3987 137.219C83.3834 137.461 83.3634 137.711 83.3404 137.968C83.3159 138.226 83.2868 138.484 83.25 138.741C83.2147 138.999 83.1718 139.241 83.1243 139.469C82.9633 140.266 82.7579 141.028 82.5095 141.755C82.2612 142.483 81.9423 143.126 81.553 143.682C81.1636 144.238 80.6914 144.681 80.1334 145.011C79.5769 145.341 78.9085 145.505 78.1298 145.505C77.7879 145.505 77.446 145.457 77.1011 145.361C76.7562 145.266 76.4435 145.095 76.1629 144.853C75.8809 144.611 75.6524 144.286 75.4761 143.878C75.2998 143.47 75.2109 142.952 75.2109 142.324C75.2109 141.629 75.3198 140.95 75.539 140.285C75.7582 139.62 76.0648 139.028 76.4603 138.507C76.8558 137.985 77.3265 137.567 77.8753 137.25C78.4256 136.935 79.0312 136.776 79.6965 136.776ZM78.1604 144.796C78.8487 144.796 79.4251 144.511 79.8896 143.938C80.3541 143.366 80.7497 142.514 81.0793 141.382C81.2111 140.933 81.3092 140.527 81.3751 140.165C81.441 139.803 81.4732 139.491 81.4732 139.227C81.4732 138.671 81.3613 138.241 81.136 137.938C80.9122 137.636 80.5212 137.484 79.9632 137.484C79.6812 137.484 79.4114 137.539 79.1507 137.65C78.8901 137.76 78.6464 137.923 78.418 138.134C78.1896 138.347 77.9826 138.608 77.794 138.916C77.6055 139.224 77.4414 139.577 77.305 139.971C77.1379 140.45 77.0107 140.91 76.9279 141.353C76.8436 141.796 76.8022 142.258 76.8022 142.736C76.8022 143.167 76.8359 143.516 76.9049 143.783C76.9739 144.05 77.0689 144.258 77.1931 144.407C77.3157 144.557 77.4598 144.659 77.6239 144.712C77.7894 144.77 77.9688 144.796 78.1604 144.796Z" fill="#0063B6"/>
<path d="M87.6819 145.417C86.7529 145.417 86.034 145.157 85.5219 144.635C85.0099 144.114 84.7539 143.366 84.7539 142.39C84.7539 142.031 84.7984 141.608 84.8888 141.123C85.0023 140.495 85.1647 139.938 85.3732 139.452C85.643 138.848 85.988 138.326 86.4111 137.886C86.8342 137.446 87.3186 137.11 87.8659 136.88C88.4132 136.65 89.0018 136.534 89.6304 136.534C90.3187 136.534 90.8828 136.665 91.3228 136.929C91.7628 137.193 92.0816 137.55 92.2794 138.002C92.4772 138.454 92.5753 138.977 92.5753 139.569C92.5753 140.102 92.5001 140.671 92.3514 141.275C92.1353 142.161 91.821 142.912 91.4087 143.53C90.9948 144.146 90.4766 144.616 89.8542 144.936C89.2318 145.256 88.5082 145.417 87.6819 145.417ZM86.3252 142.776C86.3252 143.435 86.4617 143.921 86.7345 144.235C87.0074 144.55 87.4183 144.708 87.9701 144.708C88.5573 144.708 89.0785 144.444 89.5338 143.916C89.9891 143.389 90.3478 142.652 90.6115 141.703C90.8752 140.754 91.007 139.92 91.007 139.201C91.007 138.554 90.8813 138.068 90.6299 137.742C90.3785 137.415 89.986 137.253 89.4526 137.253C88.8302 137.253 88.2859 137.513 87.823 138.034C87.3585 138.556 86.9936 139.301 86.7269 140.271C86.4586 141.24 86.3252 142.075 86.3252 142.776Z" fill="#0063B6"/>
<path d="M101.926 138.428C101.926 138.991 101.705 139.462 101.266 139.839C100.826 140.216 100.228 140.507 99.4735 140.709V140.808C99.9947 140.927 100.401 141.154 100.695 141.485C100.988 141.818 101.135 142.218 101.135 142.684C101.135 143.061 101.048 143.415 100.875 143.743C100.701 144.073 100.45 144.36 100.12 144.605C99.7908 144.85 99.3845 145.045 98.9032 145.189C98.4203 145.333 97.8715 145.405 97.2552 145.405C96.6497 145.405 96.1438 145.33 95.7375 145.181C95.3298 145.031 95.0032 144.824 94.7579 144.557C94.5127 144.291 94.3364 143.975 94.2321 143.61C94.1279 143.245 94.0742 142.843 94.0742 142.406C94.0742 142.137 94.0957 141.864 94.1371 141.585C94.1785 141.306 94.2321 141.027 94.298 140.745C94.4651 140.015 94.7212 139.383 95.0661 138.855C95.411 138.324 95.808 137.887 96.2603 137.544C96.7125 137.199 97.2016 136.944 97.7289 136.78C98.2563 136.616 98.7821 136.534 99.3094 136.534C99.8 136.534 100.212 136.581 100.545 136.678C100.878 136.774 101.146 136.906 101.348 137.073C101.552 137.24 101.699 137.441 101.788 137.676C101.877 137.91 101.926 138.159 101.926 138.428ZM99.6176 142.794C99.6176 142.244 99.4351 141.848 99.0703 141.609C98.7054 141.37 98.1873 141.251 97.5158 141.251H95.7728C95.7483 141.364 95.7253 141.487 95.7007 141.619C95.6762 141.75 95.6563 141.882 95.6379 142.014C95.6195 142.146 95.6057 142.273 95.598 142.396C95.5888 142.518 95.5842 142.627 95.5842 142.724C95.5842 143.101 95.621 143.417 95.6961 143.671C95.7713 143.926 95.8786 144.13 96.0196 144.281C96.1606 144.435 96.3354 144.543 96.5454 144.609C96.7554 144.675 96.9946 144.708 97.2644 144.708C97.5449 144.708 97.827 144.675 98.1091 144.609C98.3896 144.543 98.6441 144.438 98.8679 144.291C99.0917 144.143 99.2742 143.947 99.4106 143.702C99.5486 143.457 99.6176 143.153 99.6176 142.794ZM99.0871 137.243C98.6978 137.243 98.339 137.332 98.0094 137.509C97.6798 137.685 97.3824 137.922 97.1157 138.218C96.849 138.514 96.6175 138.861 96.4197 139.256C96.222 139.652 96.061 140.07 95.9353 140.513H96.5822C97.3012 140.513 97.9037 140.46 98.3927 140.352C98.8802 140.245 99.2742 140.098 99.5746 139.912C99.8736 139.727 100.088 139.512 100.217 139.27C100.346 139.028 100.41 138.772 100.41 138.502C100.41 138.358 100.389 138.212 100.347 138.062C100.306 137.912 100.235 137.778 100.136 137.657C100.038 137.538 99.9027 137.44 99.731 137.361C99.5593 137.282 99.3447 137.243 99.0871 137.243Z" fill="#0063B6"/>
<path d="M109.751 143.476C109.308 143.961 108.882 144.346 108.475 144.626C108.068 144.908 107.661 145.109 107.254 145.229C106.846 145.348 106.397 145.408 105.906 145.408C105.432 145.408 105.026 145.331 104.684 145.18C104.342 145.028 104.06 144.818 103.835 144.551C103.611 144.284 103.444 143.967 103.337 143.599C103.229 143.231 103.176 142.831 103.176 142.4C103.176 141.76 103.291 141.073 103.522 140.338C103.752 139.606 104.102 138.946 104.569 138.362C105.037 137.778 105.596 137.326 106.249 137.006C106.903 136.685 107.597 136.526 108.333 136.526C109.058 136.526 109.601 136.673 109.962 136.966C110.324 137.26 110.505 137.717 110.505 138.339C110.505 139.357 110.027 140.121 109.072 140.63C108.117 141.139 106.699 141.393 104.819 141.393C104.747 141.752 104.712 142.141 104.712 142.561C104.712 143.19 104.834 143.647 105.08 143.932C105.325 144.217 105.727 144.358 106.283 144.358C106.834 144.358 107.335 144.238 107.784 143.999C108.233 143.76 108.704 143.392 109.194 142.894L109.751 143.476ZM104.972 140.63C105.523 140.624 106.007 140.593 106.423 140.535C106.838 140.478 107.197 140.4 107.496 140.302C107.795 140.204 108.043 140.084 108.241 139.948C108.439 139.81 108.595 139.659 108.713 139.494C108.83 139.33 108.911 139.155 108.955 138.973C109 138.79 109.023 138.6 109.023 138.402C109.023 138.037 108.937 137.751 108.767 137.544C108.596 137.337 108.344 137.234 108.008 137.234C107.588 137.234 107.177 137.386 106.772 137.688C106.368 137.99 106.012 138.398 105.704 138.91C105.396 139.422 105.152 139.995 104.972 140.63Z" fill="#0063B6"/>
<path d="M112.768 146.854C112.708 147.142 112.67 147.363 112.656 147.519C112.641 147.675 112.633 147.804 112.633 147.905C112.633 148.085 112.662 148.226 112.723 148.327C112.783 148.428 112.877 148.506 113.002 148.56C113.128 148.614 113.335 148.655 113.622 148.686L113.55 149.126H110.773L113.045 139.137C113.159 138.634 113.215 138.203 113.215 137.843C113.215 137.676 113.189 137.545 113.139 137.452C113.088 137.36 113.001 137.291 112.878 137.245C112.756 137.2 112.547 137.168 112.254 137.15L112.362 136.673L114.401 136.592H114.913L114.31 138.927L114.417 138.962C115.526 137.34 116.626 136.527 117.723 136.527C118.376 136.527 118.883 136.776 119.245 137.273C119.607 137.769 119.787 138.47 119.787 139.374C119.787 140.021 119.699 140.671 119.522 141.323C119.346 141.976 119.101 142.566 118.786 143.092C118.472 143.619 118.121 144.051 117.735 144.39C117.348 144.729 116.941 144.982 116.513 145.149C116.085 145.316 115.635 145.4 115.161 145.4C114.364 145.4 113.703 145.227 113.176 144.879L112.768 146.854ZM113.846 142.138C113.786 142.456 113.747 142.698 113.734 142.866C113.718 143.034 113.711 143.199 113.711 143.36C113.711 143.828 113.81 144.166 114.011 144.379C114.212 144.593 114.557 144.698 115.049 144.698C115.354 144.698 115.636 144.639 115.894 144.519C116.151 144.399 116.395 144.226 116.626 143.998C116.856 143.771 117.065 143.495 117.25 143.171C117.436 142.848 117.601 142.472 117.749 142.045C117.896 141.617 118.006 141.177 118.081 140.725C118.156 140.273 118.193 139.849 118.193 139.454C118.193 138.825 118.104 138.356 117.928 138.048C117.752 137.74 117.471 137.585 117.088 137.585C116.783 137.585 116.481 137.688 116.185 137.895C115.889 138.102 115.564 138.433 115.21 138.887C114.856 139.342 114.581 139.791 114.384 140.234C114.186 140.677 114.03 141.186 113.916 141.761L113.846 142.138Z" fill="#0063B6"/>
<path d="M121.912 136.678H124.742L123.602 141.249C123.517 141.585 123.444 141.919 123.381 142.25C123.318 142.581 123.286 142.886 123.286 143.162C123.286 143.587 123.359 143.894 123.507 144.079C123.654 144.265 123.882 144.358 124.193 144.358C124.451 144.358 124.73 144.258 125.029 144.058C125.328 143.857 125.645 143.546 125.981 143.124C126.317 142.702 126.582 142.302 126.776 141.925C126.971 141.548 127.123 141.099 127.23 140.578L128.047 136.679H129.602L128.236 142.814C128.201 142.975 128.158 143.188 128.11 143.452C128.063 143.716 128.038 143.932 128.038 144.099C128.038 144.35 128.109 144.528 128.25 144.634C128.391 144.738 128.653 144.803 129.036 144.827L128.938 145.267H126.369L126.944 143.012L126.827 142.977C126.246 143.803 125.685 144.416 125.142 144.813C124.6 145.212 124.054 145.411 123.503 145.411C122.922 145.411 122.482 145.252 122.184 144.931C121.885 144.611 121.734 144.136 121.734 143.507C121.734 143.328 121.751 143.116 121.783 142.874C121.816 142.632 121.863 142.379 121.923 142.115L122.677 138.927C122.737 138.663 122.777 138.454 122.798 138.298C122.82 138.143 122.83 138.01 122.83 137.903C122.83 137.633 122.758 137.444 122.614 137.337C122.47 137.23 122.213 137.161 121.842 137.13L121.912 136.678Z" fill="#0063B6"/>
<path d="M136.186 136.534C136.431 136.534 136.682 136.54 136.94 136.552C137.198 136.564 137.455 136.583 137.713 136.606C137.97 136.63 138.219 136.655 138.458 136.682C138.697 136.71 138.922 136.741 139.131 136.777L137.739 143.02C137.691 143.248 137.653 143.444 137.627 143.613C137.599 143.78 137.587 143.924 137.587 144.044C137.587 144.194 137.608 144.315 137.65 144.407C137.691 144.501 137.754 144.574 137.838 144.631C137.923 144.688 138.028 144.729 138.157 144.757C138.286 144.784 138.435 144.806 138.602 144.824L138.521 145.264H135.737L136.572 141.393H136.239C136.023 141.393 135.824 141.404 135.642 141.425C135.459 141.447 135.277 141.514 135.094 141.628C134.912 141.741 134.722 141.919 134.524 142.163C134.326 142.406 134.107 142.751 133.868 143.201C133.652 143.596 133.446 143.935 133.253 144.215C133.058 144.498 132.85 144.726 132.629 144.902C132.407 145.079 132.165 145.209 131.901 145.293C131.637 145.377 131.329 145.419 130.975 145.419C130.808 145.419 130.618 145.404 130.405 145.374C130.192 145.344 130.005 145.296 129.844 145.23L130.23 143.55H130.868C130.892 143.82 130.952 144.007 131.047 144.111C131.142 144.215 131.28 144.269 131.461 144.269C131.552 144.269 131.639 144.249 131.726 144.211C131.814 144.173 131.907 144.102 132.01 143.999C132.111 143.898 132.224 143.76 132.347 143.585C132.47 143.412 132.609 143.187 132.764 142.912C132.896 142.685 133.014 142.492 133.118 142.333C133.222 142.175 133.328 142.037 133.433 141.919C133.537 141.802 133.647 141.698 133.761 141.609C133.874 141.519 134.003 141.43 134.147 141.34L134.165 141.267C133.77 141.208 133.434 141.11 133.16 140.972C132.884 140.834 132.66 140.671 132.487 140.483C132.313 140.294 132.188 140.089 132.11 139.868C132.031 139.647 131.993 139.425 131.993 139.203C131.993 138.753 132.099 138.361 132.312 138.025C132.525 137.689 132.816 137.412 133.187 137.19C133.558 136.969 134.001 136.803 134.516 136.696C135.03 136.587 135.588 136.534 136.186 136.534ZM137.454 137.378C137.262 137.337 137.044 137.303 136.802 137.28C136.56 137.256 136.327 137.245 136.106 137.245C135.758 137.245 135.43 137.283 135.122 137.361C134.814 137.44 134.545 137.564 134.319 137.734C134.09 137.904 133.909 138.125 133.776 138.395C133.643 138.664 133.574 138.991 133.574 139.374C133.574 139.794 133.731 140.116 134.046 140.345C134.36 140.573 134.849 140.686 135.514 140.686H136.718L137.454 137.378Z" fill="#0063B6"/>
</svg>
