<svg width="40" height="40" viewBox="0 0 40 40" fill="none" xmlns="http://www.w3.org/2000/svg">
<g clip-path="url(#clip0_491_2)">
<path d="M20 40C31.0457 40 40 31.0457 40 20C40 8.9543 31.0457 0 20 0C8.9543 0 0 8.9543 0 20C0 31.0457 8.9543 40 20 40Z" fill="#3182CE"/>
<g clip-path="url(#clip1_491_2)">
<mask id="mask0_491_2" style="mask-type:luminance" maskUnits="userSpaceOnUse" x="9" y="9" width="22" height="22">
<path d="M9 9H31V31H9V9Z" fill="white"/>
</mask>
<g mask="url(#mask0_491_2)">
<path d="M26.325 10.0312H29.6989L22.3289 18.4761L31 29.9695H24.2114L18.8906 23.0003L12.8091 29.9695H9.43214L17.3144 20.9338L9 10.0328H15.9614L20.7637 16.4018L26.325 10.0312ZM25.1386 27.9455H27.0086L14.94 11.95H12.9349L25.1386 27.9455Z" fill="white"/>
</g>
</g>
</g>
<defs>
<clipPath id="clip0_491_2">
<rect width="40" height="40" fill="white"/>
</clipPath>
<clipPath id="clip1_491_2">
<rect width="22" height="22" fill="white" transform="translate(9 9)"/>
</clipPath>
</defs>
</svg>
